<svg width="78" height="78" viewBox="0 0 78 78" fill="none" xmlns="http://www.w3.org/2000/svg">
<rect width="78" height="78" rx="39" fill="black"/>
<path fill-rule="evenodd" clip-rule="evenodd" d="M39.1142 19C44.2289 19.0233 49.1559 21.0012 52.8395 24.5148C56.6169 28.0983 58.7989 32.9151 58.9866 38.1041C59.1742 43.1768 57.3911 48.1332 54.0126 51.9261C50.3056 56.0913 45.1439 58.4881 39.5834 58.651H39.0203C36.0172 58.651 33.0375 57.9994 30.3394 56.6963L19.8753 59C19.8753 59 19.8753 59 19.8518 59C19.758 59 19.6876 58.9069 19.6876 58.8371L21.4473 48.3426C19.9457 45.6201 19.1011 42.5253 19.0072 39.4072C18.8664 34.1018 20.7903 29.0756 24.4504 25.2129C28.2747 21.2106 33.4598 19 39.0203 19H39.1142ZM38.9969 22.4439C38.8326 22.4439 38.6684 22.4439 38.5276 22.4439C29.4244 22.6998 22.2215 30.2624 22.4796 39.2909C22.5734 42.0599 23.3477 44.7592 24.732 47.1326L25.037 47.6446L23.7231 54.765L30.8321 53.1129L31.3717 53.3921C33.7179 54.6021 36.3457 55.2304 38.9969 55.2304C39.1611 55.2304 39.3019 55.2304 39.4661 55.2304C48.5694 54.9744 55.7722 47.4119 55.5142 38.3834C55.2561 29.5177 47.889 22.4671 38.9969 22.4671V22.4439ZM32.0756 29.2618C32.404 29.2618 32.756 29.2618 33.0375 29.3083C33.3895 29.3316 33.7883 29.3549 34.1402 30.2158C34.5626 31.2164 35.4541 33.7062 35.5714 33.9622C35.6887 34.2181 35.7591 34.4974 35.5714 34.8464C35.4072 35.1722 35.3133 35.3816 35.0318 35.6608C34.7737 35.9401 34.4922 36.2891 34.2575 36.5218C33.9995 36.7545 33.7414 37.0105 33.9995 37.5224C34.281 38.0343 35.2195 39.6864 36.6976 41.0593C38.5511 42.8045 40.0527 43.3863 40.6392 43.6655C40.8504 43.7586 41.0381 43.8051 41.1789 43.8051C41.39 43.8051 41.5542 43.712 41.7185 43.5492C42.0235 43.2234 42.962 42.153 43.3608 41.6411C43.572 41.3851 43.7597 41.292 43.9474 41.292C44.1116 41.292 44.2758 41.3386 44.487 41.4316C44.9328 41.6178 47.3728 42.8976 47.8655 43.1536C48.3582 43.4095 48.6867 43.5492 48.804 43.7586C48.9213 43.968 48.8979 44.9686 48.4286 46.1088C47.9828 47.2722 45.8947 48.3194 44.9797 48.3659C44.6982 48.3659 44.4401 48.4124 44.0881 48.4124C43.2435 48.4124 41.9531 48.203 38.9734 46.9232C33.9291 44.7592 30.879 39.477 30.6444 39.1512C30.4098 38.8255 28.6736 36.3822 28.7674 33.9389C28.8378 31.4956 30.1751 30.3322 30.6444 29.8435C31.0902 29.3781 31.6063 29.2618 31.9583 29.2618H32.0052H32.0756Z" fill="white"/>
</svg>
