<svg width="37" height="37" viewBox="0 0 37 37" fill="none" xmlns="http://www.w3.org/2000/svg">
<path d="M6.0302 30.1508C5.20105 30.1508 4.49125 29.8556 3.90079 29.2651C3.31033 28.6747 3.01511 27.9649 3.01511 27.1357V9.04513C3.01511 8.21597 3.31033 7.50617 3.90079 6.91571C4.49125 6.32526 5.20105 6.03003 6.0302 6.03003H30.151C30.9801 6.03003 31.6899 6.32526 32.2804 6.91571C32.8708 7.50617 33.1661 8.21597 33.1661 9.04513V27.1357C33.1661 27.9649 32.8708 28.6747 32.2804 29.2651C31.6899 29.8556 30.9801 30.1508 30.151 30.1508H6.0302ZM18.0906 19.598L6.0302 12.0602V27.1357H30.151V12.0602L18.0906 19.598ZM18.0906 16.5829L30.151 9.04513H6.0302L18.0906 16.5829ZM6.0302 12.0602V9.04513V27.1357V12.0602Z" fill="#FF8279"/>
</svg>
