<svg width="78" height="78" viewBox="0 0 78 78" fill="none" xmlns="http://www.w3.org/2000/svg">
<rect width="78" height="78" rx="39" fill="#FFFFFA"/>
<path d="M56.3607 40.2104C56.3427 40.11 56.3296 40.0111 56.3149 39.9123C56.3263 39.7034 56.3296 39.4944 56.3345 39.2838C56.3558 39.2627 56.3803 39.2401 56.4098 39.219C56.4016 39.0748 56.4965 39.023 56.4376 38.9825C56.418 38.9695 56.3836 38.9695 56.3427 38.9793C56.3427 38.976 56.3427 38.9744 56.3427 38.9712C56.3427 38.6358 56.3296 38.3037 56.3116 37.9717C56.341 37.6509 56.3885 37.3237 56.4016 36.9884C56.4147 36.4894 56.4245 35.9711 56.3689 35.4446C56.2707 34.9667 56.1414 34.4824 56.0105 33.9932C55.8763 33.5039 55.6619 33.0342 55.5097 32.5352C55.3755 32.0541 55.1612 31.5989 54.991 31.1162C54.8944 30.8797 54.8208 30.6286 54.6997 30.4018C54.5819 30.1718 54.4591 29.9434 54.3299 29.7166C54.2039 29.4963 54.0598 29.2841 53.9077 29.0767C53.7391 28.8807 53.5575 28.6944 53.3791 28.5065L52.3219 27.3807C51.6788 26.5966 51.0243 25.798 50.242 25.1241C49.8313 24.8099 49.4516 24.4535 49.0523 24.1198C48.6367 23.812 48.2161 23.5026 47.7776 23.2288C47.3128 22.9745 46.835 22.751 46.3669 22.5161C46.1362 22.3913 45.8875 22.3071 45.6453 22.2131C45.4031 22.1208 45.1609 22.0285 44.9203 21.9361C44.4245 21.7223 43.9008 21.6122 43.3968 21.4631C43.1432 21.3951 42.8928 21.3157 42.6391 21.2606C42.3839 21.2169 42.1286 21.1715 41.8782 21.1278C41.6082 21.0841 41.3398 21.0387 41.0731 20.995C40.808 20.9464 40.5396 20.9545 40.2761 20.9318C40.0127 20.9172 39.7525 20.901 39.4939 20.8864C39.2353 20.8686 38.9817 20.8508 38.7297 20.867C38.2027 20.8832 37.6742 20.8508 37.1391 20.8281C36.6089 20.8508 36.0737 20.8767 35.5419 20.948C34.4929 21.1505 33.4587 21.4421 32.4588 21.8211C32.2085 21.9135 31.9532 21.9961 31.7159 22.1192L31.0122 22.5063L30.3135 22.8935C30.086 23.0296 29.8667 23.1802 29.636 23.3098C29.1794 23.5787 28.7049 23.8217 28.2827 24.1425L27.6314 24.6009L27.3073 24.8325C27.2026 24.9152 27.1061 25.0043 27.0046 25.0901C26.6102 25.4449 26.2076 25.7932 25.8493 26.1819C25.5007 26.5821 25.1521 26.9789 24.7938 27.3677C24.4697 27.784 24.1277 28.1874 23.7841 28.5956C23.4568 29.0135 23.1704 29.4623 22.884 29.911C22.7351 30.1329 22.6108 30.3678 22.4897 30.6043L22.1116 31.309C21.8384 31.7706 21.6567 32.2728 21.4636 32.7717C21.372 33.0228 21.2885 33.2755 21.228 33.5363C21.1821 33.8004 21.1461 34.0677 21.1118 34.3317L21.0005 35.1206C20.9498 35.3798 20.9498 35.6471 20.9007 35.9047C20.8598 36.1638 20.8058 36.423 20.7468 36.6806L20.6536 37.0678C20.6274 37.1973 20.611 37.3286 20.5898 37.4598C20.5112 37.983 20.4228 38.5127 20.4114 39.044C20.4359 39.5964 20.521 40.1456 20.6078 40.6883C20.7158 41.2293 20.8778 41.7574 20.9563 42.2968C20.989 42.569 21.0365 42.8363 21.0807 43.1084C21.12 43.3806 21.151 43.6559 21.1838 43.9329C21.2247 44.4934 21.3752 45.0312 21.5634 45.5545C21.6665 45.812 21.7418 46.081 21.8629 46.332L22.2131 47.0902C22.3309 47.3429 22.4455 47.5972 22.5698 47.8467L23.4372 49.2787C23.5861 49.5152 23.7579 49.7355 23.9166 49.9655C24.2406 50.4207 24.5565 50.8856 24.9541 51.2825C25.6971 52.12 26.5268 52.8813 27.4121 53.5666C27.6395 53.7318 27.8703 53.8889 28.1059 54.0428C28.3416 54.1935 28.5707 54.3538 28.826 54.4721L30.3102 55.2448C30.8159 55.4781 31.3281 55.6984 31.8403 55.909C32.3705 56.0774 32.9007 56.2427 33.4243 56.4225C33.9562 56.5748 34.5077 56.6622 35.0477 56.7675C35.3161 56.8291 35.5943 56.842 35.8675 56.8712C36.1425 56.8987 36.4141 56.9279 36.6874 56.9635C37.2291 57.0591 37.7838 57.004 38.3288 56.9976C38.602 56.9846 38.8737 56.9894 39.1453 56.9652C39.417 56.9344 39.687 56.9068 39.9586 56.889C40.2287 56.8712 40.5019 56.868 40.7752 56.8712C41.0485 56.8728 41.3202 56.842 41.5951 56.8339C42.1417 56.7967 42.7046 56.8015 43.2299 56.6331C43.495 56.5602 43.7552 56.4743 44.0137 56.3836C44.2723 56.2945 44.5276 56.1973 44.7698 56.0661C45.2574 55.815 45.7516 55.5963 46.2409 55.3679L47.6925 54.6535C48.1539 54.3749 48.6154 54.0963 49.0687 53.8079C49.5007 53.4888 49.9475 53.1875 50.404 52.8927C50.8475 52.5817 51.2566 52.2253 51.6543 51.8608C51.8752 51.668 52.0438 51.425 52.2205 51.1902C52.394 50.9537 52.5592 50.7123 52.7229 50.4725C52.8963 50.2409 53.0223 49.972 53.1729 49.7274C53.3202 49.4795 53.474 49.2365 53.6409 49.0049C53.9682 48.5351 54.2317 48.0232 54.5262 47.5356C54.8028 47.0367 55.0123 46.5021 55.2512 45.987C55.4705 45.4621 55.7094 44.9405 55.9843 44.4222C56.2363 43.8973 56.418 43.3401 56.5391 42.7779C56.6405 42.211 56.5538 41.623 56.5031 41.0608C56.4834 40.779 56.4147 40.4971 56.3656 40.2169L56.3607 40.2104Z" fill="#FFB533"/>
<path d="M36.3519 14.5024C36.4812 15.0385 36.6661 15.5666 36.8003 16.1012C36.9231 16.6309 37.0458 17.1639 37.1685 17.6936C37.2323 18.0305 37.4156 18.3416 37.6627 18.57C37.9082 18.8032 38.2109 18.9555 38.5251 19.043C39.147 19.2244 39.8948 19.0786 40.3481 18.5813C40.5723 18.3383 40.7196 18.0338 40.7752 17.7179C40.8161 17.4636 40.8832 17.1833 40.9405 16.9193C41.078 16.3134 41.1091 16.3167 41.2482 15.7108C41.3856 15.105 41.4969 14.4959 41.4969 14.4959C41.7456 13.7702 41.6835 13.0671 41.4904 12.6621C41.2269 12.1162 40.9585 11.9591 40.9422 11.9866C40.9274 12.0012 40.9487 12.0466 40.9896 12.1259C40.9618 12.0903 40.9356 12.053 40.9061 12.0174C40.8996 12.0093 40.8914 12.0028 40.8849 11.9947C40.8603 11.9332 40.7654 11.802 40.6198 11.6578C40.3645 11.397 39.9276 11.1896 39.7819 11.1475C39.5757 11.0746 39.2779 11.0001 38.9293 11.0001C38.5824 10.9969 38.1864 11.0698 37.8264 11.2399C37.468 11.4051 37.1538 11.6594 36.9263 11.9332C36.6956 12.2053 36.5532 12.492 36.4665 12.7107C36.3568 12.9942 36.2783 13.2923 36.2521 13.6017C36.2456 13.6794 36.2423 13.7572 36.2439 13.835C36.2472 13.9192 36.2407 13.971 36.2652 14.0974C36.2898 14.2318 36.3176 14.3679 36.3503 14.5024H36.3519Z" fill="#FFB533"/>
<path d="M21.7238 20.0668C21.7647 20.1332 21.8073 20.198 21.8547 20.2595C21.9087 20.3259 21.9333 20.3729 22.0282 20.4588C22.1296 20.5544 22.2311 20.6467 22.3375 20.7358C22.7613 21.0938 23.2228 21.4145 23.6499 21.7677C24.0639 22.124 24.4796 22.4837 24.8936 22.8417C25.1456 23.0766 25.4794 23.2224 25.8133 23.2628C26.1504 23.3082 26.4858 23.2547 26.7919 23.143C27.4022 22.9275 27.921 22.3751 27.9914 21.7077C28.029 21.3805 27.9668 21.0484 27.8245 20.7617C27.7066 20.5333 27.5953 20.266 27.4841 20.0182C27.2353 19.448 27.2632 19.4334 27.016 18.8615C26.7689 18.2913 26.4973 17.7341 26.4973 17.7341C26.2682 17.0019 25.8002 16.4689 25.4042 16.2535C24.8658 15.9651 24.5565 15.9943 24.5598 16.0267C24.5565 16.0478 24.6007 16.0721 24.6809 16.1109C24.6367 16.098 24.5941 16.0834 24.5483 16.0721C24.5385 16.0704 24.5287 16.0688 24.5172 16.0672C24.4616 16.0316 24.3061 15.9813 24.1032 15.9489C23.7415 15.8858 23.2653 15.9732 23.1213 16.0235C22.9119 16.085 22.6255 16.1984 22.3424 16.4009C22.0593 16.6001 21.7827 16.8901 21.5929 17.2368C21.4014 17.5786 21.2983 17.9674 21.2771 18.3221C21.2525 18.6769 21.3065 18.9928 21.3671 19.2179C21.4472 19.5111 21.5602 19.7979 21.7222 20.0635L21.7238 20.0668Z" fill="#FFB533"/>
<path d="M19.1562 30.7647C18.9255 30.648 18.6768 30.4974 18.4395 30.3613C17.8994 30.0438 17.9125 30.0163 17.3741 29.6988C16.8358 29.3813 16.2843 29.0881 16.2843 29.0881C15.6641 28.6296 14.9686 28.4709 14.5202 28.5259C13.9147 28.6053 13.6791 28.8094 13.702 28.8337C13.7118 28.8532 13.7625 28.8467 13.8493 28.8321C13.8067 28.8467 13.7625 28.8596 13.72 28.8775C13.7102 28.8807 13.702 28.8872 13.6922 28.8904C13.6251 28.8937 13.4696 28.9439 13.2863 29.0362C12.9558 29.195 12.6219 29.5433 12.5368 29.668C12.4026 29.8413 12.239 30.0973 12.131 30.4261C12.0197 30.7517 11.969 31.147 12.0197 31.539C12.0688 31.9261 12.2145 32.302 12.4076 32.6C12.5974 32.9013 12.8298 33.1249 13.013 33.2723C13.252 33.4634 13.5138 33.6287 13.8018 33.7485C13.8738 33.7777 13.9474 33.8052 14.0227 33.8295C14.1045 33.8522 14.1536 33.8749 14.2813 33.8895C14.4187 33.9073 14.5578 33.9235 14.6969 33.9348C15.2517 33.9786 15.8163 33.9689 16.3726 34.0061C16.9192 34.0547 17.4707 34.1033 18.0173 34.1503C18.3609 34.194 18.716 34.1179 19.0122 33.9559C19.3117 33.7971 19.5522 33.559 19.7339 33.2901C20.1005 32.7604 20.1905 32.012 19.8534 31.4321C19.6897 31.1453 19.4426 30.9121 19.1562 30.763V30.7647Z" fill="#FFB533"/>
<path d="M65.5247 32.3765C65.5771 32.3344 65.6737 32.2031 65.7669 32.0233C65.9388 31.7026 66.0026 31.2263 65.9993 31.0757C66.0042 30.8586 65.9846 30.5557 65.8782 30.2269C65.7751 29.8996 65.582 29.5497 65.3071 29.263C65.0371 28.9779 64.6951 28.7592 64.3629 28.6296C64.029 28.4968 63.7099 28.4514 63.4727 28.4385C63.1666 28.4223 62.8557 28.4401 62.5513 28.5114C62.4761 28.5292 62.3991 28.5502 62.3255 28.5745C62.2453 28.6037 62.193 28.6134 62.08 28.6766C61.9573 28.7414 61.8362 28.8094 61.7184 28.8823C61.2438 29.1707 60.7938 29.506 60.3209 29.7992C59.8496 30.0778 59.375 30.3597 58.9053 30.6383C58.601 30.8019 58.3588 31.0725 58.2164 31.3738C58.0691 31.6767 58.0168 32.0088 58.0282 32.3327C58.0462 32.9742 58.4177 33.6319 59.0363 33.9057C59.339 34.0418 59.6777 34.0871 59.9969 34.0401C60.2538 33.9996 60.5434 33.977 60.8167 33.9494C61.4418 33.8927 61.4467 33.9219 62.0719 33.8652C62.697 33.8085 63.3156 33.7242 63.3156 33.7242C64.0896 33.734 64.7474 33.4586 65.0764 33.1524C65.5198 32.7345 65.5886 32.4332 65.5558 32.4283C65.5362 32.4186 65.5002 32.4526 65.438 32.5158C65.4642 32.4785 65.492 32.4429 65.5149 32.404C65.5198 32.3959 65.5247 32.3862 65.5297 32.3765H65.5247Z" fill="#FFB533"/>
<path d="M57.2722 18.4857C57.2607 18.0159 57.138 17.5608 56.9433 17.172C56.7305 16.7605 56.5309 16.3134 56.1741 16.0494C56.107 15.9992 55.981 15.9295 55.9499 15.9522C55.9074 15.9749 56.0449 16.0494 56.1185 16.119C56.1381 16.1385 56.1496 16.1611 56.166 16.1773C56.0907 16.1077 56.0089 16.0413 55.927 15.9797C55.927 15.9797 55.9259 15.9786 55.9238 15.9765C55.9516 15.9182 55.9516 15.8015 55.8845 15.7481C55.477 15.4095 54.9501 15.1762 54.397 15.1033C53.8438 15.0256 53.2711 15.1309 52.7523 15.3285C52.227 15.5342 51.795 15.9198 51.4301 16.3312C51.3434 16.4365 51.2615 16.5483 51.183 16.6617C51.1159 16.7816 51.0423 16.9063 50.9833 17.0229C50.877 17.2481 50.7673 17.4733 50.6462 17.692C50.4024 18.131 50.0424 18.5084 49.7986 18.9425C49.5596 19.3815 49.3551 19.84 49.1162 20.279C48.8723 20.718 48.5827 21.1294 48.3389 21.5684L47.6286 22.8886C47.4437 23.2272 47.2359 23.5301 46.9495 23.7634C46.6631 23.9967 46.3293 24.136 45.984 24.2251C45.4849 24.3579 45.0071 24.5555 44.5718 24.8277C44.1447 25.0998 43.7208 25.3947 43.3788 25.7721C43.1203 26.0556 42.9713 26.4136 42.8142 26.7554C42.8699 26.7829 42.9239 26.8137 42.9795 26.8331C43.1841 26.9141 43.3919 27 43.603 27.0858C43.8076 27.1636 44.0939 27.0583 44.2985 27.1668C44.503 27.264 44.6667 27.4503 44.868 27.5475C45.0725 27.6415 45.2754 27.7387 45.4653 27.8618C45.6584 27.9784 45.8858 28.0448 46.0773 28.1615C46.2769 28.2749 46.4144 28.4676 46.596 28.6005C46.7761 28.7365 46.9021 28.9423 47.0788 29.0751C47.2637 29.2031 47.5337 29.2306 47.7023 29.378C47.8708 29.5335 47.9772 29.7506 48.1376 29.898C48.2979 30.0616 48.5025 30.1783 48.6514 30.3403C48.8052 30.512 48.9852 30.6545 49.1227 30.8262C49.2602 31.0174 49.3895 31.1988 49.5187 31.3738C49.5547 31.424 49.5809 31.479 49.6087 31.5325C49.8166 31.3073 50.0162 31.0741 50.1782 30.81C50.4335 30.3824 50.6102 29.9158 50.7428 29.438C50.877 28.9633 51.0177 28.4709 51.0063 27.9574L50.9866 27.6544C50.9833 27.5653 50.9784 27.4762 50.9866 27.3871C50.9948 27.209 51.0226 27.0259 51.0848 26.851C51.2108 26.5011 51.4072 26.1674 51.6657 25.8839C51.9439 25.5842 52.2892 25.278 52.6083 24.9443C52.9029 24.6301 53.2089 24.3028 53.5231 23.9691C53.8258 23.65 54.1008 23.2969 54.4133 22.9664C54.7193 22.6473 55.0646 22.3557 55.3706 22.0301C55.6799 21.7077 55.9434 21.3384 56.2461 21.016C56.3247 20.935 56.4065 20.8573 56.49 20.7795L56.7567 20.5236C56.8385 20.4296 56.9171 20.3324 56.9923 20.2369C57.0594 20.1364 57.1216 20.0263 57.1773 19.9177C57.3933 19.448 57.2918 18.9263 57.2787 18.4873L57.2722 18.4857ZM55.6308 15.7902C55.6816 15.8096 55.7323 15.8291 55.7847 15.8517C55.7847 15.8517 55.7928 15.8712 55.801 15.8987C55.7454 15.8631 55.6914 15.821 55.6325 15.7902H55.6308Z" fill="black"/>
<path d="M58.9954 41.4998C57.9202 41.4869 56.8827 41.4755 55.8976 41.4642C54.865 41.4431 53.8373 41.2439 52.8047 41.2245C51.7721 41.205 50.7395 41.2423 49.7069 41.2245C48.6743 41.2066 47.6385 41.3654 46.6075 41.3492L43.5114 41.2795C42.4788 41.2666 41.4462 41.333 40.4136 41.3216C39.381 41.3103 38.35 41.2018 37.3174 41.1937C36.2848 41.1856 35.2539 41.1046 34.2213 41.0981C33.1887 41.0932 32.1561 41.3524 31.1235 41.3508C30.0909 41.3492 29.06 41.1386 28.0274 41.1402C26.9555 41.1386 25.8836 41.3638 24.8118 41.3654C23.7399 41.367 22.6664 41.0544 21.5945 41.0576C21.0578 41.0592 20.5227 41.0479 19.9859 41.0382L19.1808 41.0236L18.0647 41.0203C16.9339 41.0236 15.7884 41.0058 14.6151 40.9879C14.8933 41.8983 15.1813 42.8282 15.4873 43.7612L16.659 47.3315C16.9978 48.3391 17.4642 49.303 17.8045 50.3105C18.1449 51.3165 18.5507 52.3014 18.8928 53.3074C19.0646 53.8096 19.261 54.3036 19.459 54.7977C19.5539 55.0407 19.693 55.3436 19.8059 55.6109C19.9499 55.8766 20.0694 56.152 20.2265 56.4095C20.8221 57.4625 21.7173 58.2951 22.6549 58.9998C23.1164 59.3659 23.5959 59.7158 24.1016 60.043C24.617 60.3492 25.1636 60.6359 25.7544 60.7736C26.0456 60.861 26.3517 60.8821 26.6478 60.9226C26.9506 60.9339 27.2501 60.9534 27.5495 60.9323C28.173 60.9048 28.6623 60.8238 29.2089 60.8173L32.0383 60.7914C31.8092 61.0457 31.5899 61.3292 31.4573 61.6645C31.3052 62.0614 31.3919 62.4955 31.2528 62.8827C31.117 63.2634 30.8879 63.6149 30.7537 63.9956C30.6195 64.3795 30.3773 64.7278 30.2464 65.1052C30.0566 65.6884 29.8684 66.2651 29.6834 66.8304L29.4314 67.5934L30.5884 67.6242C30.9353 67.629 31.2757 67.6323 31.6095 67.6371C31.747 67.6371 31.8828 67.6404 32.017 67.642C32.1168 67.6452 32.215 67.6485 32.3116 67.6517C32.719 67.6679 33.1232 67.817 33.5307 67.8315C33.9382 67.8461 34.3457 67.8186 34.7515 67.8315C35.159 67.8445 35.5664 67.7262 35.9739 67.7376L37.1947 67.7894C37.6022 67.7991 38.0096 67.7489 38.4155 67.757C38.823 67.7651 39.2288 67.8477 39.6363 67.8526C40.0437 67.8574 40.4496 67.919 40.8571 67.9239C41.2645 67.9287 41.672 67.7327 42.0778 67.7343C42.4853 67.7343 42.8911 67.8931 43.2986 67.8915C43.7208 67.8931 44.1447 67.723 44.5669 67.723C44.9891 67.723 45.4129 67.9563 45.8351 67.953L46.7335 67.9676C47.1475 67.9757 47.5681 67.9838 47.9821 67.9806C48.3749 67.9773 48.7807 67.9887 49.1947 68C49.0851 67.5966 48.9738 67.1836 48.8412 66.7624L48.2194 64.7569C48.0885 64.3584 47.861 63.9907 47.7285 63.5922C47.5959 63.1937 47.4159 62.8114 47.2817 62.4145C47.2146 62.2153 47.1279 62.0241 47.0412 61.8314C46.9626 61.6597 46.8481 61.3843 46.7351 61.164C46.6451 60.9744 46.5208 60.8076 46.3849 60.6505C47.2964 60.5484 48.1867 60.2244 49.0965 60.0673H49.6382C49.6644 60.0883 49.6906 60.1126 49.7167 60.1467C49.8673 60.1321 49.9213 60.2228 49.9638 60.1612C49.9786 60.1402 49.9769 60.1062 49.9671 60.0673H49.9753C50.2617 60.0673 50.5448 60.0462 50.8246 60.0154C51.7148 60.0171 52.7016 59.9928 53.6458 59.591C54.6162 59.178 55.459 58.4539 56.2249 57.6585C56.9563 56.8987 57.6453 56.011 58.0511 54.9565C58.4128 53.9829 58.4553 52.9283 58.8022 51.9515C59.1426 50.9877 59.6041 50.0611 59.9412 49.094C60.28 48.122 60.7578 47.2019 61.09 46.2429C61.5106 44.994 61.9278 43.7596 62.3353 42.5512L62.6741 41.5484L58.9888 41.495L58.9954 41.4998Z" fill="black"/>
</svg>
