<svg width="210" height="210" viewBox="0 0 210 210" fill="none" xmlns="http://www.w3.org/2000/svg">
<g clip-path="url(#clip0_73_86)">
<path d="M195.551 194.602L209.507 187.787C210.978 190.795 209.047 194.761 205.192 196.64C201.338 198.52 197.021 197.611 195.551 194.602Z" fill="#FFAE85"/>
<path d="M10.1949 13.0328L30.7645 2.99998C32.9323 7.43523 30.0861 13.2789 24.405 16.0502C18.724 18.8215 12.3608 17.4623 10.1949 13.0328Z" fill="#FFAE85"/>
<path d="M36.2807 39.5723L26.3947 35.0556C27.3706 32.9242 30.3741 32.2048 33.1066 33.4523C35.8392 34.6998 37.2566 37.4408 36.2807 39.5723Z" fill="#FFAE85"/>
<path d="M169.908 92.4754L160.023 87.9587C161 85.8272 164.002 85.1079 166.734 86.3554C169.467 87.6028 170.884 90.342 169.908 92.4754Z" fill="#FFAE85"/>
<path d="M9.88594 208L3.95023e-07 203.481C0.975892 201.35 3.97939 200.633 6.7119 201.88C9.44441 203.127 10.8618 205.868 9.88594 208Z" fill="#FFAE85"/>
</g>
<defs>
<clipPath id="clip0_73_86">
<rect width="210" height="210" fill="white"/>
</clipPath>
</defs>
</svg>
