<svg width="210" height="210" viewBox="0 0 210 210" fill="none" xmlns="http://www.w3.org/2000/svg">
<path d="M14.4491 16.3985L0.492869 23.2132C-0.977609 20.2053 0.953341 16.2395 4.80766 14.3598C8.66198 12.48 12.9787 13.3887 14.4491 16.3985Z" fill="#FFE6A9"/>
<path d="M199.805 197.967L179.236 208C177.068 203.565 179.914 197.721 185.595 194.95C191.276 192.178 197.639 193.538 199.805 197.967Z" fill="#FFE6A9"/>
<path d="M173.719 171.428L183.605 175.944C182.629 178.076 179.626 178.795 176.893 177.548C174.161 176.3 172.743 173.559 173.719 171.428Z" fill="#FFE6A9"/>
<path d="M40.0916 118.525L49.9775 123.041C48.9997 125.173 45.9981 125.892 43.2656 124.645C40.5331 123.397 39.1157 120.658 40.0916 118.525Z" fill="#FFE6A9"/>
<path d="M200.114 3L210 7.51854C209.024 9.65003 206.021 10.3675 203.288 9.12C200.556 7.87252 199.138 5.13149 200.114 3Z" fill="#FFE6A9"/>
</svg>
