<svg width="37" height="37" viewBox="0 0 37 37" fill="none" xmlns="http://www.w3.org/2000/svg">
<path d="M30.0756 31.6586C26.9349 31.6586 23.8318 30.9739 20.7665 29.6045C17.7011 28.2352 14.9122 26.2942 12.3996 23.7816C9.887 21.2691 7.94604 18.4801 6.57668 15.4147C5.20732 12.3494 4.52264 9.24636 4.52264 6.10563C4.52264 5.65337 4.6734 5.27648 4.97491 4.97497C5.27642 4.67346 5.65331 4.52271 6.10557 4.52271H12.2111C12.5629 4.52271 12.877 4.64205 13.1534 4.88075C13.4297 5.11944 13.5931 5.40211 13.6433 5.72874L14.6232 11.0052C14.6735 11.4072 14.6609 11.7464 14.5855 12.0228C14.5102 12.2991 14.372 12.5378 14.171 12.7388L10.5151 16.4323C11.0177 17.362 11.6144 18.2602 12.3054 19.1271C12.9963 19.9939 13.7564 20.8294 14.5855 21.6334C15.3644 22.4123 16.181 23.1346 17.0353 23.8005C17.8896 24.4663 18.7941 25.0756 19.7489 25.6284L23.2916 22.0856C23.5178 21.8595 23.813 21.6899 24.1773 21.5768C24.5416 21.4638 24.8997 21.4324 25.2514 21.4826L30.4525 22.5379C30.8042 22.6384 31.0932 22.8206 31.3193 23.0844C31.5454 23.3482 31.6585 23.6434 31.6585 23.9701V30.0757C31.6585 30.5279 31.5078 30.9048 31.2063 31.2063C30.9047 31.5078 30.5279 31.6586 30.0756 31.6586ZM9.08298 13.568L11.5704 11.0805L10.9297 7.5378H7.57543C7.70106 8.56796 7.87694 9.58556 8.10307 10.5906C8.3292 11.5956 8.65584 12.5881 9.08298 13.568ZM22.5755 27.0606C23.5554 27.4877 24.5542 27.8269 25.5718 28.0781C26.5894 28.3294 27.6133 28.4927 28.6434 28.5681V25.2515L25.1007 24.5354L22.5755 27.0606Z" fill="#FF8279"/>
</svg>
