<svg width="210" height="210" viewBox="0 0 210 210" fill="none" xmlns="http://www.w3.org/2000/svg">
<path d="M175.511 172.412L179.984 171.928V177.356L174.566 175.805L175.511 172.412Z" fill="#5E4034"/>
<path d="M163.495 40.756L167.045 37.9859L169.896 42.602L164.476 44.1407L163.495 40.756Z" fill="#5E4034"/>
<path d="M199.727 0L204 1.4061L201.769 6.35273L197.471 2.70275L199.727 0Z" fill="#5E4034"/>
<path d="M41.8119 169.899L39.835 173.946L35.2511 171.054L39.4485 167.289L41.8119 169.899Z" fill="#5E4034"/>
<path d="M14.4766 59.7489L18.3903 61.9738L15.2287 66.3816L11.733 61.9528L14.4766 59.7489Z" fill="#5E4034"/>
<path d="M99.289 33.7676L102.449 36.9776L98.205 40.3518L96.0496 35.1358L99.289 33.7676Z" fill="#5E4034"/>
<path d="M185.322 152.148L189.194 154.444L185.95 158.791L182.538 154.299L185.322 152.148Z" fill="#5E4034"/>
<path d="M33.8835 9.11863L37.4359 6.35273L40.2825 10.971L34.8604 12.5055L33.8835 9.11863Z" fill="#5E4034"/>
<path d="M5 191.676L8.47048 188.807L11.4515 193.341L6.0756 195.032L5 191.676Z" fill="#5E4034"/>
<path d="M132.364 206.645L135.832 203.776L138.813 208.31L133.437 210L132.364 206.645Z" fill="#5E4034"/>
</svg>
