<svg width="210" height="210" viewBox="0 0 210 210" fill="none" xmlns="http://www.w3.org/2000/svg">
<path d="M7.24079 41.0006L12.7205 57.4565C9.17717 58.6419 5.07635 55.9218 3.5623 51.3771C2.04824 46.8323 3.69744 42.186 7.24079 41.0006Z" fill="#5E4034"/>
<path d="M13.7996 55.2529L9.42423 42.114C12.2517 41.1678 15.5269 43.3396 16.7348 46.9678C17.9426 50.596 16.6292 54.3067 13.7996 55.2529Z" fill="#5E4034"/>
<path d="M183.031 195.115L174.118 209.986C170.915 208.057 170.317 203.163 172.775 199.057C175.233 194.95 179.83 193.187 183.031 195.115Z" fill="#5E4034"/>
<path d="M176.489 209.374L183.608 197.501C186.165 199.04 186.644 202.947 184.678 206.226C182.712 209.505 179.057 210.915 176.489 209.374Z" fill="#5E4034"/>
<path d="M50.1495 142.111L63.3578 146.133C62.4921 148.991 58.8305 150.409 55.1837 149.295C51.5368 148.182 49.2837 144.969 50.1495 142.111Z" fill="#5E4034"/>
<path d="M62.4266 144.418L51.881 141.201C52.5736 138.919 55.4962 137.788 58.4081 138.675C61.3201 139.562 63.1277 142.136 62.4266 144.418Z" fill="#5E4034"/>
<path d="M193.792 3.73668L207.001 7.75857C206.133 10.6162 202.473 12.0324 198.824 10.9189C195.175 9.8055 192.924 6.59645 193.792 3.73668Z" fill="#5E4034"/>
<path d="M206.069 6.04397L195.511 2.82857C196.204 0.546679 199.126 -0.5858 202.04 0.30325C204.954 1.1923 206.762 3.76208 206.069 6.04397Z" fill="#5E4034"/>
</svg>
