<svg width="62" height="72" viewBox="0 0 62 72" fill="none" xmlns="http://www.w3.org/2000/svg">
<path d="M57.241 37.0988C55.8553 37.0817 54.5165 37.0666 53.2452 37.0514C51.9139 37.023 50.5882 36.7615 49.2569 36.735C47.9255 36.7085 46.5923 36.7577 45.261 36.735C43.9297 36.7104 42.5946 36.9207 41.2633 36.8998L37.2694 36.807C35.9381 36.788 34.6049 36.8771 33.2736 36.8619C31.9422 36.8468 30.6128 36.7047 29.2815 36.6933C27.9502 36.6819 26.6188 36.5758 25.2875 36.5682C23.9562 36.5607 22.623 36.9036 21.2917 36.9017C19.9604 36.8998 18.6291 36.6232 17.2977 36.6251C15.9139 36.6213 14.532 36.9207 13.15 36.9226C11.7681 36.9245 10.3824 36.5133 9.00045 36.519C8.30854 36.5209 7.61663 36.5076 6.92472 36.4925L5.8878 36.4735L4.44772 36.4697C2.9889 36.4754 1.51133 36.4508 0 36.428C0.360018 37.6255 0.729412 38.8514 1.12506 40.0811L2.63638 44.782C3.07328 46.1083 3.67518 47.3778 4.11396 48.7041C4.55273 50.0285 5.07588 51.3264 5.5184 52.6509C5.73966 53.3121 5.9928 53.9639 6.24781 54.6138C6.37157 54.9321 6.54783 55.3338 6.69596 55.6843C6.8816 56.033 7.03535 56.3968 7.23786 56.7359C8.00665 58.1229 9.15984 59.2199 10.3711 60.1465C10.9674 60.6277 11.5862 61.0882 12.2387 61.5202C12.9025 61.9237 13.6076 62.3008 14.3707 62.4827C14.7457 62.5964 15.1414 62.6248 15.5239 62.6778C15.9139 62.6911 16.3002 62.7176 16.6865 62.6911C17.4909 62.6532 18.1209 62.5471 18.8278 62.5395L22.4768 62.5054C22.1824 62.8408 21.8992 63.2122 21.7286 63.6555C21.5317 64.1785 21.6442 64.7488 21.4642 65.2604C21.2879 65.7606 20.9936 66.2248 20.821 66.7269C20.6467 67.2309 20.3373 67.6894 20.1685 68.1878C19.9229 68.9551 19.681 69.7149 19.4429 70.4596L19.1166 71.4638L20.6092 71.5036C21.0573 71.5093 21.4961 71.5149 21.9274 71.5206C22.1055 71.5225 22.2799 71.5244 22.4524 71.5263C22.5818 71.5301 22.7074 71.5339 22.833 71.5377C23.3581 71.5585 23.8812 71.7556 24.4062 71.7745C24.9313 71.7935 25.4563 71.7575 25.9813 71.7745C26.5063 71.7916 27.0332 71.6362 27.5583 71.6514L29.1333 71.7215C29.6584 71.7347 30.1834 71.6684 30.7084 71.6798C31.2334 71.6912 31.7585 71.7973 32.2835 71.8067C32.8085 71.8143 33.3336 71.8958 33.8586 71.9015C34.3836 71.9072 34.9086 71.6495 35.4337 71.6514C35.9587 71.6533 36.4837 71.8598 37.0087 71.8598C37.5544 71.8617 38.1 71.6381 38.6438 71.6362C39.1895 71.6362 39.7351 71.9432 40.2808 71.9394L41.4377 71.9583C41.9721 71.9697 42.514 71.9792 43.0484 71.9754C43.5547 71.9716 44.0778 71.9867 44.6122 72C44.4716 71.4695 44.3272 70.9257 44.1566 70.3705L43.3541 67.7311C43.1853 67.2063 42.8909 66.7212 42.7221 66.1983C42.5515 65.6753 42.3171 65.1713 42.1446 64.6484C42.0584 64.3869 41.9477 64.133 41.8352 63.881C41.7321 63.6555 41.5858 63.2917 41.4415 63.0018C41.3252 62.7517 41.1639 62.532 40.9896 62.3254C42.1652 62.1909 43.3147 61.7646 44.4866 61.5562H45.186C45.2198 61.5846 45.2535 61.6168 45.2873 61.6604C45.4804 61.6395 45.5517 61.7608 45.606 61.6793C45.6248 61.6509 45.6229 61.6073 45.6098 61.5562H45.621C45.9904 61.5562 46.3542 61.5277 46.7161 61.4898C47.8655 61.4917 49.1369 61.4614 50.3538 60.9309C51.6045 60.3871 52.692 59.4322 53.6802 58.3881C54.6253 57.3877 55.5122 56.2187 56.0353 54.8317C56.5022 53.549 56.5585 52.162 57.0047 50.8755C57.4435 49.606 58.0398 48.3858 58.4748 47.1125C58.9117 45.8317 59.5286 44.6209 59.9561 43.359C60.4999 41.7144 61.0362 40.0906 61.5631 38.499L62 37.1784L57.2466 37.1082L57.241 37.0988Z" fill="black"/>
<path d="M14.2732 19.8774C13.9563 19.8774 13.6938 19.9854 13.4801 20.1995C13.2682 20.4155 13.1613 20.6827 13.1613 21.001V31.9091C13.1613 32.2293 13.2682 32.4964 13.4801 32.7105C13.6938 32.9265 13.9563 33.0326 14.2732 33.0326C14.4645 33.0326 14.562 33.1293 14.562 33.3244V33.4703C14.562 33.6503 14.4664 33.7413 14.2732 33.7413H9.65861C9.46548 33.7413 9.36985 33.6503 9.36985 33.4703V33.3244C9.36985 33.1293 9.46548 33.0326 9.65861 33.0326C9.97363 33.0326 10.238 32.9246 10.4518 32.7105C10.6637 32.4945 10.7705 32.2293 10.7705 31.9091V26.6625C10.7705 26.7591 10.8174 26.8084 10.9149 26.8084H5.16776C5.26339 26.8084 5.31214 26.761 5.31214 26.6625V31.9091C5.31214 32.2293 5.41902 32.4964 5.63091 32.7105C5.84279 32.9265 6.10718 33.0326 6.42407 33.0326C6.61721 33.0326 6.71284 33.1293 6.71284 33.3244V33.4703C6.71284 33.6503 6.61721 33.7413 6.42407 33.7413H1.80947C1.63133 33.7413 1.54133 33.6503 1.54133 33.4703V33.3244C1.54133 33.1293 1.62946 33.0326 1.80947 33.0326C2.12448 33.0326 2.39262 32.9246 2.61201 32.7105C2.83139 32.4945 2.94202 32.2293 2.94202 31.9091V21.001C2.94202 20.6808 2.83139 20.4155 2.61201 20.1995C2.39262 19.9835 2.12448 19.8774 1.80947 19.8774C1.63133 19.8774 1.54133 19.7808 1.54133 19.5856V19.4397C1.54133 19.2597 1.62946 19.1688 1.80947 19.1688H6.42407C6.61721 19.1688 6.71284 19.2597 6.71284 19.4397V19.5856C6.71284 19.7808 6.61721 19.8774 6.42407 19.8774C6.10906 19.8774 5.84467 19.9854 5.63091 20.1995C5.41715 20.4155 5.31214 20.6827 5.31214 21.001V26.2476C5.31214 26.1509 5.26339 26.1017 5.16776 26.1017H10.9149C10.8193 26.1017 10.7705 26.1509 10.7705 26.2476V21.001C10.7705 20.6808 10.6637 20.4155 10.4518 20.1995C10.238 19.9835 9.97363 19.8774 9.65861 19.8774C9.46548 19.8774 9.36985 19.7808 9.36985 19.5856V19.4397C9.36985 19.2597 9.46548 19.1688 9.65861 19.1688H14.2732C14.4645 19.1688 14.562 19.2597 14.562 19.4397V19.5856C14.562 19.7808 14.4664 19.8774 14.2732 19.8774Z" fill="black"/>
<path d="M23.7331 25.8516C23.7612 25.9065 23.7743 25.9634 23.7743 26.0183C23.7743 26.1434 23.7199 26.24 23.6093 26.3101L17.6559 29.8078C17.4909 29.9044 17.4084 30.0446 17.4084 30.2246C17.4084 30.2796 17.4215 30.3364 17.4496 30.3914C17.7515 31.2232 18.1528 31.9072 18.6553 32.4415C19.156 32.9758 19.6679 33.2562 20.191 33.2847C20.521 33.2714 20.8229 33.1956 21.0967 33.0554C21.3705 32.9171 21.6217 32.739 21.8486 32.5249C22.0755 32.3089 22.278 32.0663 22.4561 31.7954C22.6343 31.5244 22.7918 31.2573 22.9305 30.9939C22.998 30.8973 23.0805 30.848 23.178 30.848C23.2193 30.848 23.268 30.8613 23.3224 30.8897L23.5287 30.9939C23.6243 31.064 23.6731 31.1531 23.6731 31.2649L23.6524 31.3482C23.2399 32.1952 22.6905 32.8754 22.0042 33.3889C21.318 33.9023 20.5285 34.1581 19.6341 34.1581C18.9741 34.1581 18.3572 34.0122 17.7796 33.7204C17.2021 33.4287 16.6977 33.0326 16.2646 32.5343C15.8314 32.0341 15.4883 31.4524 15.2351 30.7855C14.9801 30.1185 14.8545 29.4042 14.8545 28.6406C14.8545 27.877 14.982 27.1627 15.2351 26.4958C15.4883 25.8288 15.8333 25.2471 16.2646 24.7469C16.6977 24.2467 17.2021 23.8507 17.7796 23.5608C18.3572 23.269 18.9741 23.1231 19.6341 23.1231C20.4985 23.1231 21.2823 23.36 21.9836 23.8318C22.683 24.3036 23.2474 24.9345 23.6731 25.7265L23.7349 25.8516H23.7331ZM21.8167 26.581C21.7755 26.5943 21.7548 26.6303 21.7548 26.6853V26.7269C21.4398 25.9217 21.0404 25.2661 20.5604 24.7602C20.0785 24.2543 19.5779 24.0004 19.0566 24.0004C18.6591 24.0004 18.3253 24.1349 18.0572 24.4059C17.789 24.6768 17.5753 25.0027 17.4178 25.3836C17.2602 25.7663 17.1459 26.168 17.0784 26.5905C17.009 27.013 16.9752 27.3787 16.9752 27.6838C16.9752 27.9888 16.9921 28.292 17.0259 28.5895C17.0596 28.8888 17.1121 29.1901 17.1796 29.4952C17.1665 29.4118 17.1252 29.3701 17.0559 29.3701C17.0296 29.3701 17.0109 29.3739 17.0052 29.3796C16.9977 29.3872 16.9884 29.3891 16.9752 29.3891L21.8167 26.5791V26.581Z" fill="black"/>
<path d="M28.3627 33.0554C28.5539 33.0554 28.6514 33.1463 28.6514 33.3263V33.4722C28.6514 33.6522 28.5558 33.7432 28.3627 33.7432H24.0781C23.9 33.7432 23.8099 33.6522 23.8099 33.4722V33.3263C23.8099 33.1463 23.8981 33.0554 24.0781 33.0554C24.395 33.0554 24.6575 32.9436 24.8713 32.7219C25.0831 32.5002 25.19 32.2369 25.19 31.9299V19.1082C25.19 19.2048 25.2388 19.2541 25.3344 19.2541H25.355L23.6862 19.7543C23.4949 19.7543 23.3974 19.6652 23.3974 19.4833V19.3583C23.3974 19.2199 23.4593 19.129 23.5831 19.0873L26.962 18.0054C27.1532 18.0054 27.2508 18.0964 27.2508 18.2764V31.9318C27.2508 32.2369 27.3614 32.5002 27.5808 32.7238C27.8002 32.9455 28.0608 33.0573 28.3627 33.0573V33.0554Z" fill="black"/>
<path d="M40.2602 31.2232C40.2602 31.5282 40.2302 31.8522 40.1683 32.1914C40.1064 32.5305 39.9939 32.847 39.8289 33.1388C39.6639 33.4305 39.4445 33.6731 39.1688 33.8663C38.8932 34.0596 38.5444 34.1581 38.1188 34.1581C37.6369 34.1581 37.1925 33.9914 36.78 33.6579C36.3675 33.3244 36.0599 32.7428 35.8537 31.9091L35.8124 31.7423L36.1631 31.8257C35.9981 32.0209 35.7787 32.2501 35.503 32.5135C35.2293 32.7769 34.8993 33.0308 34.5149 33.2733C34.1305 33.5158 33.7048 33.7242 33.2379 33.8985C32.771 34.0729 32.2554 34.1581 31.6928 34.1581C31.4453 34.1581 31.1772 34.1164 30.8903 34.0331C30.6015 33.9497 30.3372 33.8076 30.0971 33.6068C29.8571 33.4059 29.6546 33.1425 29.4896 32.8166C29.3246 32.4907 29.2421 32.0853 29.2421 31.5983C29.2421 31.1815 29.3246 30.7931 29.4896 30.4331C29.6546 30.0731 29.8703 29.7434 30.1384 29.444C30.4065 29.1446 30.7084 28.8756 31.0441 28.6312C31.3797 28.3886 31.7266 28.1764 32.0847 27.9964C32.9079 27.553 33.8492 27.1911 34.9068 26.9145L34.948 26.9354L34.7005 27.1855C34.5767 26.7004 34.4436 26.2665 34.2992 25.8838C34.1549 25.5029 33.9973 25.1751 33.8248 24.9061C33.6523 24.637 33.4536 24.4267 33.2267 24.2808C32.9998 24.1349 32.7354 24.0629 32.4335 24.0629C32.2141 24.0629 31.9929 24.1008 31.7735 24.1766C31.5541 24.2524 31.3478 24.3471 31.1547 24.457C30.9616 24.5688 30.7872 24.6958 30.6297 24.8417C30.4722 24.9876 30.3372 25.1372 30.2284 25.2888C30.174 25.3855 30.084 25.4347 29.9603 25.4347C29.8646 25.4347 29.7821 25.4044 29.7127 25.3419C29.6434 25.2793 29.6096 25.1922 29.6096 25.0823C29.6096 25.0539 29.6227 24.9989 29.6509 24.9156C29.7746 24.7223 29.9396 24.5196 30.1459 24.3111C30.3522 24.1027 30.6015 23.9132 30.8978 23.7389C31.1922 23.5646 31.5391 23.4225 31.9385 23.3126C32.336 23.2008 32.7823 23.1459 33.2773 23.1459C33.9505 23.1459 34.513 23.2918 34.9668 23.5835C35.4205 23.8753 35.7974 24.2676 36.0993 24.7602C36.4012 25.2528 36.6487 25.8326 36.84 26.4977C37.0331 27.1646 37.2038 27.8714 37.3556 28.6217C37.41 28.9002 37.485 29.2432 37.5825 29.6524C37.6782 30.0617 37.7738 30.4539 37.8713 30.8291C37.8975 30.9674 37.9257 31.0924 37.9538 31.2042C37.98 31.316 38.0082 31.4259 38.0363 31.5377C38.1863 32.163 38.3176 32.5931 38.4282 32.828C38.5388 33.0649 38.6682 33.1823 38.8201 33.1823C38.957 33.1823 39.0732 33.1065 39.1707 32.9531C39.2664 32.7996 39.3451 32.6196 39.407 32.4112C39.4689 32.2027 39.5139 31.9886 39.542 31.7651C39.5682 31.5434 39.5832 31.3634 39.5832 31.2232H40.2639H40.2602ZM32.8648 32.4926C33.2773 32.4926 33.6411 32.4472 33.9561 32.3581C34.273 32.2691 34.543 32.1573 34.7699 32.0246C34.9968 31.892 35.1843 31.7537 35.3362 31.6078C35.4862 31.4619 35.6043 31.3331 35.6868 31.2232C35.6174 30.9882 35.5555 30.7419 35.5012 30.4842C35.4468 30.2284 35.3849 29.967 35.3155 29.7036C35.2462 29.4269 35.1843 29.1598 35.1299 28.9021C35.0755 28.6463 35.0193 28.4208 34.9649 28.2257C34.9368 28.0874 34.9143 27.9869 34.8936 27.9244C34.873 27.8619 34.8486 27.769 34.8205 27.644C34.5599 27.7406 34.2411 27.8808 33.8623 28.0608C33.4836 28.2408 33.1235 28.4663 32.7804 28.7373C32.4373 29.0082 32.1447 29.3208 31.9047 29.6733C31.6647 30.0276 31.5447 30.4255 31.5447 30.8707C31.5447 31.0507 31.5691 31.2383 31.616 31.4335C31.6647 31.6286 31.7397 31.8049 31.8429 31.964C31.946 32.1232 32.0791 32.252 32.2441 32.3486C32.4091 32.4453 32.6154 32.4945 32.8629 32.4945L32.8648 32.4926Z" fill="black"/>
<path d="M50.6219 31.9299C50.7044 31.9299 50.7701 31.9602 50.8169 32.0228C50.8657 32.0853 50.8957 32.1516 50.9107 32.2198C50.8976 32.4832 50.8319 32.7333 50.7157 32.9682C50.5994 33.2051 50.4438 33.4135 50.2525 33.5935C50.0594 33.7735 49.8381 33.9118 49.5831 34.0103C49.3281 34.107 49.0581 34.1562 48.7693 34.1562C48.4806 34.1562 48.2031 34.0899 47.9349 33.9592C47.6668 33.8284 47.4436 33.6219 47.2655 33.3453C47.3068 33.387 47.3405 33.4078 47.3686 33.4078C47.3968 33.4078 47.423 33.3945 47.4511 33.3661C47.1211 33.6295 46.7405 33.8265 46.3073 33.9592C45.8742 34.0918 45.4523 34.1562 45.0398 34.1562C44.3797 34.1562 43.7628 34.0103 43.1853 33.7185C42.6078 33.4268 42.1034 33.0308 41.6702 32.5324C41.2371 32.0322 40.8939 31.4505 40.6408 30.7836C40.3858 30.1166 40.2601 29.4023 40.2601 28.6387C40.2601 27.8752 40.3877 27.1608 40.6408 26.4939C40.8939 25.8269 41.239 25.2452 41.6702 24.745C42.1034 24.2448 42.6078 23.8488 43.1853 23.5589C43.7628 23.2671 44.3797 23.1212 45.0398 23.1212C45.7673 23.1212 46.448 23.3012 47.0799 23.6631L47.0386 23.6423C46.943 23.6423 46.8942 23.6916 46.8942 23.7882V19.0835C46.8942 19.1802 46.943 19.2294 47.0386 19.2294H47.0592L45.3904 19.7296C45.321 19.7296 45.2554 19.705 45.1954 19.6576C45.1335 19.6084 45.1016 19.544 45.1016 19.4606V19.3355C45.1016 19.2105 45.1635 19.1195 45.2873 19.0646L48.6868 17.9827C48.7562 17.9827 48.8218 18.0073 48.8837 18.0547C48.9456 18.1039 48.9756 18.1684 48.9756 18.2517V31.5737C48.9756 32.199 49.0206 32.6215 49.1106 32.8432C49.1987 33.0649 49.3206 33.1767 49.4706 33.1767C49.6769 33.1767 49.8475 33.0687 49.9863 32.8545C50.1231 32.6385 50.2 32.415 50.2132 32.1781C50.2394 32.0114 50.3369 31.928 50.5019 31.928H50.6257L50.6219 31.9299ZM45.5948 33.387C46.0748 33.387 46.4123 33.2486 46.6036 32.9701C46.7949 32.6935 46.8924 32.3183 46.8924 31.8465V26.2267C46.8924 25.9217 46.838 25.6412 46.7273 25.3836C46.6167 25.1259 46.4667 24.9023 46.2736 24.7071C46.0804 24.512 45.8592 24.3604 45.6042 24.2486C45.3492 24.1368 45.0791 24.0819 44.7904 24.0819C44.6122 24.0819 44.4397 24.1027 44.2747 24.1444H44.2541C43.9803 24.2278 43.7291 24.3775 43.5022 24.5916C43.2753 24.8076 43.0803 25.0747 42.9153 25.393C42.7503 25.7132 42.6228 26.0808 42.5346 26.4958C42.4446 26.9126 42.3996 27.356 42.3996 27.8278C42.3996 28.2996 42.4409 28.7429 42.5234 29.2015C42.6321 29.7851 42.7953 30.3326 43.0072 30.8461C43.2191 31.3596 43.4628 31.803 43.7384 32.1781C44.0122 32.5533 44.3085 32.847 44.6235 33.063C44.9385 33.279 45.2629 33.3851 45.591 33.3851L45.5948 33.387Z" fill="black"/>
<path d="M55.6884 23.125C56.3485 23.125 56.9654 23.2709 57.5429 23.5627C58.1204 23.8545 58.6248 24.2505 59.058 24.7488C59.4911 25.249 59.8305 25.8307 60.078 26.4977C60.3255 27.1646 60.4493 27.8789 60.4493 28.6425C60.4493 29.4061 60.3255 30.1204 60.078 30.7874C59.8305 31.4543 59.4911 32.036 59.058 32.5362C58.6248 33.0364 58.1204 33.4305 57.5429 33.7223C56.9654 34.0141 56.3485 34.16 55.6884 34.16C55.0284 34.16 54.4115 34.0141 53.834 33.7223C53.2564 33.4305 52.752 33.0364 52.3189 32.5362C51.8857 32.036 51.5426 31.4543 51.2895 30.7874C51.0344 30.1204 50.9088 29.4061 50.9088 28.6425C50.9088 27.8789 51.0363 27.1646 51.2895 26.4977C51.5426 25.8326 51.8876 25.249 52.3189 24.7488C52.752 24.2486 53.2564 23.8545 53.834 23.5627C54.4115 23.2709 55.0284 23.125 55.6884 23.125ZM56.2453 33.2828C56.6429 33.2828 56.9766 33.1482 57.2448 32.8773C57.5129 32.6063 57.7248 32.2804 57.8842 31.8996C58.0417 31.5187 58.1561 31.1152 58.2236 30.6926C58.2929 30.2701 58.3267 29.9044 58.3267 29.5994C58.3267 29.1276 58.2854 28.6558 58.2029 28.184C58.0923 27.6004 57.931 27.0528 57.7192 26.5394C57.5054 26.0259 57.2616 25.5825 56.9879 25.2073C56.7122 24.8322 56.4141 24.5385 56.0916 24.3225C55.7691 24.1065 55.4428 24.0004 55.1128 24.0004C54.7003 24.0004 54.3609 24.133 54.0927 24.3964C53.8246 24.6598 53.6108 24.9857 53.4533 25.3741C53.2958 25.7625 53.1852 26.1661 53.1233 26.581C53.0614 26.9979 53.0296 27.3655 53.0296 27.6838C53.0296 28.1423 53.0708 28.6141 53.1533 29.0992C53.2621 29.6827 53.4252 30.2303 53.6371 30.7438C53.849 31.2573 54.0927 31.7006 54.3684 32.0758C54.6421 32.451 54.9421 32.7447 55.2647 32.9607C55.5872 33.1767 55.9134 33.2828 56.2435 33.2828H56.2453Z" fill="black"/>
<path d="M20.9373 3.55608C21.7155 3.97861 22.368 4.53756 22.893 5.23104C23.4181 5.92452 23.7949 6.74873 24.0256 7.69989C24.2562 8.65295 24.2862 9.72538 24.1137 10.921C23.9375 12.1431 23.6037 13.1814 23.1143 14.034C22.623 14.8867 22.0305 15.5688 21.333 16.0766C20.6354 16.5844 19.8554 16.9216 18.991 17.0903C18.1265 17.257 17.234 17.274 16.3096 17.1376L11.5187 16.4347C11.3424 16.4081 11.2656 16.3058 11.2918 16.1277L11.3124 15.9837C11.3406 15.7924 11.4418 15.709 11.62 15.7336C11.9331 15.7791 12.2125 15.7128 12.46 15.5309C12.7075 15.349 12.8538 15.1008 12.9007 14.7862L14.4532 3.99188C14.4982 3.67545 14.427 3.39503 14.2413 3.15061C14.0538 2.90619 13.8044 2.76029 13.4932 2.71482C13.3169 2.68829 13.2419 2.58029 13.27 2.38703L13.2907 2.24303C13.3169 2.06492 13.4182 1.98913 13.5944 2.01376L18.3853 2.71671C19.3097 2.85313 20.161 3.13166 20.9392 3.55419L20.9373 3.55608ZM16.409 16.4385C16.9396 16.5161 17.4946 16.4233 18.074 16.158C18.6534 15.8928 19.1991 15.4987 19.711 14.9776C20.2229 14.4566 20.6692 13.8218 21.0479 13.0696C21.4267 12.3193 21.6817 11.4913 21.8111 10.5837C21.9424 9.67801 21.9311 8.81022 21.7792 7.98221C21.6273 7.15421 21.3798 6.41526 21.0348 5.76915C20.6917 5.12304 20.2791 4.58872 19.7972 4.16809C19.3153 3.74745 18.8109 3.49735 18.2803 3.41966L17.9953 3.37798C17.7103 3.33629 17.4496 3.40261 17.2171 3.57882C16.9846 3.75503 16.8458 3.98809 16.8046 4.27609L15.2351 15.1936C15.1939 15.4816 15.2595 15.745 15.4339 15.9799C15.6083 16.2168 15.8389 16.3551 16.1239 16.3968L16.409 16.4385Z" fill="black"/>
<path d="M29.3902 15.529C29.5815 15.5555 29.664 15.6578 29.6396 15.8359L29.6209 15.9799C29.5965 16.158 29.4896 16.2357 29.2984 16.2092L25.0531 15.6256C24.8769 15.601 24.8 15.5006 24.8244 15.3206L24.8431 15.1766C24.8675 14.9985 24.9669 14.9208 25.145 14.9454C25.4582 14.989 25.7338 14.9151 25.9757 14.7237C26.2157 14.5323 26.3563 14.286 26.3976 13.9829L27.4158 6.41336C27.4045 6.49484 27.4476 6.5441 27.5414 6.55736H27.562L25.8388 6.84915C25.6475 6.82263 25.565 6.72031 25.5894 6.5422L25.6082 6.3982C25.6269 6.26178 25.7 6.18031 25.8276 6.15568L29.319 5.54178C29.3996 5.55315 29.469 5.59104 29.5215 5.65357C29.5759 5.71799 29.5965 5.78999 29.5852 5.87336L28.4564 14.269C28.4152 14.5721 28.4864 14.8469 28.6683 15.097C28.8502 15.3452 29.0902 15.4911 29.3902 15.5328V15.529ZM31.8129 0.441122C32.0004 0.691228 32.0735 0.973546 32.0304 1.28997C32.0154 1.39986 31.8822 1.56092 31.6328 1.77123C31.3835 1.98155 31.0609 2.20134 30.6709 2.42682L27.9033 4.14725C27.8414 4.19461 27.757 4.21167 27.6483 4.19651C27.5658 4.18514 27.4833 4.13967 27.397 4.0563C27.3426 3.95019 27.3201 3.85735 27.3314 3.77398C27.3445 3.67735 27.3745 3.60535 27.4233 3.55608L29.6846 1.11376C29.9921 0.778387 30.2715 0.505543 30.5228 0.293332C30.7722 0.083015 30.9597 -0.0136171 31.0816 0.0015409C31.3816 0.0432253 31.6253 0.189121 31.8129 0.437332V0.441122Z" fill="black"/>
<path d="M41.8802 11.6239C41.8802 11.929 41.8502 12.253 41.7884 12.5921C41.7265 12.9313 41.614 13.2477 41.449 13.5395C41.284 13.8313 41.0646 14.0738 40.7889 14.2671C40.5133 14.4603 40.1645 14.5589 39.7389 14.5589C39.257 14.5589 38.8126 14.3921 38.4001 14.0587C37.9875 13.7252 37.68 13.1435 37.4738 12.3098L37.4325 12.1431L37.7832 12.2264C37.6181 12.4216 37.3988 12.6509 37.1231 12.9142C36.8475 13.1776 36.5193 13.4315 36.1349 13.674C35.7505 13.9166 35.3249 14.125 34.858 14.2993C34.3911 14.4736 33.8755 14.5589 33.3129 14.5589C33.0654 14.5589 32.7973 14.5172 32.5104 14.4338C32.2216 14.3505 31.9572 14.2083 31.7172 14.0075C31.4772 13.8067 31.2747 13.5433 31.1097 13.2174C30.9447 12.8915 30.8622 12.486 30.8622 11.9991C30.8622 11.5822 30.9447 11.1938 31.1097 10.8338C31.2747 10.4738 31.4903 10.1441 31.7585 9.84475C32.0266 9.54538 32.3285 9.27632 32.6641 9.0319C32.9998 8.78937 33.3467 8.57716 33.7048 8.39716C34.528 7.95379 35.4693 7.59189 36.5268 7.31526L36.5681 7.3361L36.3206 7.58621C36.1968 7.10115 36.0637 6.66726 35.9193 6.28452C35.7749 5.90368 35.6174 5.57588 35.4449 5.30683C35.2724 5.03588 35.0736 4.82746 34.8468 4.68156C34.6199 4.53567 34.3555 4.46367 34.0536 4.46367C33.8342 4.46367 33.6129 4.50156 33.3936 4.57735C33.1742 4.65314 32.9679 4.74788 32.7748 4.85778C32.5816 4.96957 32.4073 5.09651 32.2497 5.24241C32.0922 5.3883 31.9572 5.53799 31.8485 5.68957C31.7941 5.7862 31.7041 5.83546 31.5803 5.83546C31.4847 5.83546 31.4022 5.80515 31.3328 5.74262C31.2635 5.6801 31.2297 5.59294 31.2297 5.48304C31.2297 5.45462 31.2428 5.39967 31.271 5.3163C31.3947 5.12304 31.5597 4.9203 31.766 4.71188C31.9722 4.50346 32.2216 4.31398 32.5179 4.13967C32.8123 3.96535 33.1592 3.82324 33.5586 3.71335C33.9561 3.60156 34.4024 3.54661 34.8974 3.54661C35.5705 3.54661 36.1331 3.69251 36.5868 3.9843C37.0406 4.27609 37.4175 4.6683 37.7194 5.16093C38.0213 5.65357 38.2688 6.23336 38.4601 6.89842C38.6532 7.56537 38.8238 8.27211 38.9757 9.02243C39.0301 9.30095 39.1051 9.6439 39.2026 10.0532C39.2982 10.4624 39.3939 10.8546 39.4914 11.2298C39.5176 11.3681 39.5457 11.4932 39.5739 11.605C39.6001 11.7168 39.6282 11.8267 39.6564 11.9384C39.8064 12.5637 39.9376 12.9938 40.0483 13.2288C40.1589 13.4656 40.2883 13.5831 40.4402 13.5831C40.577 13.5831 40.6933 13.5073 40.7908 13.3538C40.8864 13.2003 40.9652 13.0203 41.0271 12.8119C41.0889 12.6035 41.1339 12.3894 41.1621 12.1658C41.1883 11.9441 41.2033 11.7641 41.2033 11.6239H41.884H41.8802ZM34.4849 12.8934C34.8974 12.8934 35.2612 12.8479 35.5762 12.7589C35.8931 12.6698 36.1631 12.558 36.39 12.4254C36.6168 12.2928 36.8044 12.1544 36.9562 12.0085C37.1062 11.8627 37.2244 11.7338 37.3069 11.6239C37.2375 11.389 37.1756 11.1426 37.1212 10.885C37.0669 10.6292 37.005 10.3677 36.9356 10.1043C36.8662 9.82769 36.8044 9.56054 36.75 9.30285C36.6956 9.04706 36.6394 8.82158 36.585 8.62642C36.5568 8.48811 36.5343 8.38769 36.5137 8.32516C36.4931 8.26263 36.4687 8.16979 36.4406 8.04474C36.1799 8.14137 35.8612 8.28158 35.4824 8.46158C35.1036 8.64158 34.7436 8.86706 34.4005 9.13801C34.0573 9.40895 33.7648 9.72159 33.5248 10.074C33.2848 10.4283 33.1648 10.8262 33.1648 11.2715C33.1648 11.4515 33.1892 11.6391 33.236 11.8342C33.2848 12.0294 33.3598 12.2056 33.4629 12.3648C33.5661 12.5239 33.6992 12.6528 33.8642 12.7494C34.0292 12.846 34.2355 12.8953 34.483 12.8953L34.4849 12.8934Z" fill="black"/>
<path d="M50.4569 12.6206C50.5863 12.63 50.6688 12.702 50.7026 12.8366L50.4888 15.0382C50.4663 15.1728 50.4007 15.2542 50.2938 15.2808L43.5828 16.9955C43.3953 17.0429 43.2809 16.9804 43.2378 16.8041C43.2284 16.7644 43.2284 16.7132 43.2416 16.6526L46.1217 6.33947L46.1367 6.4001C46.1573 6.48157 46.2136 6.50999 46.3073 6.48536L43.8303 7.11821C43.3241 7.24705 42.9059 7.50474 42.5778 7.88937C42.2496 8.274 42.0509 8.72495 41.9815 9.24411C41.959 9.37864 41.8802 9.4639 41.7471 9.49801L41.5315 9.48854C41.3983 9.4658 41.314 9.38622 41.2802 9.25169L41.4902 7.20158C41.5127 7.06705 41.5783 6.98558 41.6852 6.95905L48.1356 5.31062C48.3212 5.26325 48.4374 5.32767 48.4806 5.50199C48.4899 5.54178 48.4881 5.59294 48.4768 5.65357L45.5967 15.9667L45.5817 15.906C45.561 15.8246 45.5048 15.7961 45.411 15.8208L48.008 15.1576C48.5537 15.0174 49.0075 14.737 49.3694 14.3163C49.7313 13.8938 49.9469 13.4031 50.02 12.8403C50.0331 12.7229 50.1063 12.6471 50.2394 12.613L50.455 12.6224L50.4569 12.6206Z" fill="black"/>
<path d="M36.1968 16.9728C36.2231 16.8345 36.2831 16.5995 36.2831 16.4612C36.2831 16.1656 35.8537 16.1656 35.638 16.1656L35.698 15.906L37.4681 15.7924L36.4968 19.4397C36.4106 19.7789 36.2043 20.569 36.2043 20.8892C36.2043 20.984 36.2474 21.1147 36.36 21.1147C36.6093 21.1147 36.8587 20.5842 36.9787 20.3852L37.1512 20.4629C36.9356 20.9669 36.4368 21.6869 35.8443 21.6869C35.398 21.6869 35.2518 21.236 35.3118 20.8627H35.2949C35.0286 21.289 34.5561 21.7134 34.0405 21.7134C33.3092 21.7134 32.9323 21.1488 32.9567 20.4534C32.9304 19.4284 33.7555 17.8576 34.9424 17.8576C35.3549 17.8576 35.6549 18.013 35.8199 18.3882H35.8368L36.1968 16.9728ZM33.9448 20.569C33.9448 20.8911 34.0573 21.1943 34.4267 21.1943C35.2255 21.1943 35.6643 19.4132 35.6643 18.8145C35.6643 18.5284 35.5105 18.337 35.2011 18.337C34.4024 18.337 33.9467 19.9343 33.9467 20.569H33.9448Z" fill="black"/>
<path d="M40.3483 20.5861C39.9526 21.1772 39.4032 21.7153 38.6644 21.7153C37.8825 21.7153 37.4269 21.2208 37.4269 20.4212C37.4269 19.1271 38.3719 17.8595 39.7033 17.8595C40.1495 17.8595 40.7514 18.0414 40.7514 18.589C40.7514 19.5705 39.2307 19.9002 38.4826 20.0915C38.4563 20.2564 38.4319 20.4212 38.4319 20.5861C38.4319 20.9252 38.6119 21.2379 38.9813 21.2379C39.4632 21.2379 39.8495 20.7699 40.1326 20.4212L40.3483 20.5861ZM39.9358 18.4753C39.9358 18.2764 39.8233 18.1191 39.617 18.1191C38.9982 18.1191 38.6795 19.3355 38.5594 19.813C39.1351 19.6387 39.9339 19.1612 39.9339 18.4753H39.9358Z" fill="black"/>
</svg>
