<svg width="37" height="37" viewBox="0 0 37 37" fill="none" xmlns="http://www.w3.org/2000/svg">
<path d="M26.724 11.7371C27.6367 11.359 28.0701 10.3126 27.692 9.39993C27.314 8.48723 26.2676 8.05381 25.3549 8.43187C24.4422 8.80992 24.0088 9.85628 24.3868 10.769C24.7649 11.6817 25.8113 12.1151 26.724 11.7371Z" fill="#FF8279"/>
<path d="M24.1145 32.8512H12.0666C7.22722 32.8512 3.28919 28.9145 3.28919 24.0738V12.0259C3.28919 7.18651 7.22722 3.24848 12.0666 3.24848H24.1145C28.9539 3.24848 32.892 7.18651 32.892 12.0259V24.0738C32.892 28.9132 28.9539 32.8512 24.1145 32.8512ZM12.0666 5.06683C8.22991 5.06683 5.10754 8.1892 5.10754 12.0259V24.0738C5.10754 27.9105 8.22991 31.0329 12.0666 31.0329H24.1145C27.9512 31.0329 31.0736 27.9105 31.0736 24.0738V12.0259C31.0736 8.1892 27.9512 5.06683 24.1145 5.06683H12.0666Z" fill="#FF8279"/>
<path d="M18.0906 24.6283C14.4626 24.6283 11.5122 21.6766 11.5122 18.0499C11.5122 14.4231 14.4638 11.4715 18.0906 11.4715C21.7174 11.4715 24.669 14.4231 24.669 18.0499C24.669 21.6766 21.7174 24.6283 18.0906 24.6283ZM18.0906 13.1444C15.3851 13.1444 13.1852 15.3456 13.1852 18.0499C13.1852 20.7541 15.3863 22.9553 18.0906 22.9553C20.7948 22.9553 22.996 20.7541 22.996 18.0499C22.996 15.3456 20.7948 13.1444 18.0906 13.1444Z" fill="#FF8279"/>
<path d="M32.3984 12.0261C32.3984 7.45916 28.6813 3.74207 24.1143 3.74207H12.0668C7.49987 3.74207 3.78278 7.45916 3.78278 12.0261V24.0736C3.78278 28.6418 7.49983 32.3577 12.0668 32.3577H24.1143C28.6813 32.3577 32.3984 28.6406 32.3984 24.0736V12.0261ZM30.5803 12.0261C30.5803 8.46185 27.6786 5.56012 24.1143 5.56012H12.0668C8.50256 5.56012 5.60083 8.46185 5.60083 12.0261V24.0736C5.60083 27.6379 8.50256 30.5396 12.0668 30.5396H24.1143C27.6786 30.5396 30.5803 27.6379 30.5803 24.0736V12.0261ZM24.1754 18.0499C24.1754 14.6956 21.4449 11.9651 18.0906 11.9651C14.7363 11.9651 12.0058 14.6956 12.0058 18.0499C12.0058 21.4042 14.7351 24.1347 18.0906 24.1347C21.4449 24.1347 24.1754 21.4042 24.1754 18.0499ZM22.5024 18.0499C22.5024 15.6181 20.5223 13.638 18.0906 13.638C15.6577 13.638 13.6787 15.618 13.6787 18.0499C13.6787 20.4816 15.6588 22.4617 18.0906 22.4617C20.5223 22.4617 22.5024 20.4816 22.5024 18.0499ZM25.1663 7.97616C26.3307 7.49392 27.6654 8.04681 28.1477 9.21122C28.63 10.3757 28.0771 11.7108 26.9126 12.1931C25.7482 12.6753 24.4135 12.1219 23.9312 10.9575C23.449 9.79312 24.0019 8.45847 25.1663 7.97616ZM27.236 9.58864C26.9621 8.9278 26.2046 8.61411 25.5437 8.88786C24.8829 9.16164 24.5688 9.9192 24.8424 10.5801C25.1162 11.2411 25.8742 11.5552 26.5352 11.2814C27.1962 11.0076 27.5098 10.2496 27.236 9.58864ZM23.4896 18.0499C23.4896 21.0266 21.0673 23.4489 18.0906 23.4489C15.1138 23.4489 12.6916 21.0266 12.6916 18.0499C12.6916 15.0732 15.1126 12.6508 18.0906 12.6508C21.0673 12.6508 23.4896 15.0731 23.4896 18.0499ZM25.1626 18.0499C25.1626 21.9491 21.9898 25.1218 18.0906 25.1218C14.1901 25.1218 11.0186 21.9491 11.0186 18.0499C11.0186 14.1506 14.1913 10.9779 18.0906 10.9779C21.9898 10.9779 25.1626 14.1506 25.1626 18.0499ZM31.567 24.0736C31.567 28.1828 28.2235 31.5263 24.1143 31.5263H12.0668C7.95759 31.5263 4.61418 28.1828 4.61418 24.0736V12.0261C4.61418 7.91688 7.95759 4.57347 12.0668 4.57347H24.1143C28.2235 4.57347 31.567 7.91688 31.567 12.0261V24.0736ZM33.3855 24.0736C33.3855 29.1855 29.2262 33.3448 24.1143 33.3448H12.0668C6.95495 33.3448 2.79559 29.1869 2.79559 24.0736V12.0261C2.79559 6.91419 6.9549 2.75488 12.0668 2.75488H24.1143C29.2262 2.75488 33.3855 6.91419 33.3855 12.0261V24.0736Z" fill="#FF8279"/>
</svg>
