<svg width="384" height="102" viewBox="0 0 384 102" fill="none" xmlns="http://www.w3.org/2000/svg">
<path d="M251.245 30.5211C251.216 30.5132 251.252 30.5421 251.258 30.5553C251.268 30.5711 251.276 30.587 251.284 30.6001C251.299 30.6265 251.31 30.6529 251.32 30.6819L251.325 30.7003L251.401 30.869C251.456 30.9903 251.503 31.1142 251.555 31.2354C251.753 31.7284 251.924 32.2345 252.07 32.7459C252.362 33.774 252.544 34.839 252.596 35.9277C252.615 36.4734 252.607 37.0243 252.547 37.5806C252.477 38.1315 252.38 38.6904 252.193 39.2281C251.852 40.3142 251.213 41.3106 250.411 42.0936C250.219 42.2966 250 42.4705 249.786 42.6472C249.578 42.8317 249.346 42.974 249.122 43.1348C248.908 43.2956 248.635 43.4248 248.385 43.5645C248.135 43.7148 247.856 43.7991 247.588 43.9046C246.499 44.2868 245.346 44.3527 244.265 44.2367C243.176 44.1207 242.147 43.8123 241.173 43.4248C240.199 43.0347 239.274 42.5628 238.384 42.0514C236.597 41.0286 234.909 39.8687 233.339 38.5717C232.552 37.9259 231.792 37.251 231.049 36.5551C230.677 36.2098 230.312 35.8565 229.95 35.498C229.844 35.3926 229.76 35.3082 229.695 35.2423C229.479 35.0262 229.453 34.9945 229.377 34.9128L229.364 34.897C229.357 34.8812 229.349 34.8838 229.341 34.8917C229.336 34.8944 229.333 34.8996 229.33 34.9023L229.297 34.9392C229.278 34.9629 229.255 34.9866 229.237 35.013C229.219 35.0393 229.198 35.0657 229.182 35.0921L229.146 35.1501L229.052 35.2898C228.935 35.4849 228.823 35.6826 228.716 35.8855C228.622 36.0938 228.513 36.2941 228.427 36.5103C228.346 36.7238 228.255 36.9347 228.179 37.1535L227.971 37.8152C227.864 38.2686 227.737 38.7141 227.669 39.178C227.632 39.41 227.572 39.6394 227.557 39.8792L227.492 40.5884C227.46 40.8256 227.471 41.0655 227.466 41.3054L227.458 42.0224C227.494 42.5022 227.51 42.9846 227.559 43.4643C227.63 43.9415 227.682 44.4239 227.76 44.901C227.856 45.3782 227.945 45.8553 228.031 46.3351L228.174 47.1154C228.224 47.379 228.239 47.6426 228.276 47.9062C228.382 48.958 228.385 50.0124 228.325 51.059C228.2 53.0571 227.747 55.1476 226.843 57.1405C225.986 58.9831 224.739 60.7625 223.012 62.0964C222.192 62.7317 221.259 63.2615 220.254 63.6095C220.236 63.6148 220.215 63.62 220.197 63.6279C220.363 64.1288 220.522 64.627 220.676 65.1252C221.207 66.8255 221.629 68.5258 221.879 70.1866C222.025 71.0802 222.054 71.9633 222.093 72.8174C222.09 73.4263 222.095 74.0168 222.095 74.6047C222.119 75.1504 222.132 75.6987 222.132 76.2523V76.2681C222.16 76.2496 222.181 76.2496 222.194 76.2733C222.236 76.3419 222.171 76.4341 222.176 76.6846C222.155 76.7215 222.139 76.761 222.126 76.7979C222.121 77.1512 222.113 77.4991 222.098 77.8418C222.145 79.4736 222.202 81.1027 221.879 82.7476C221.496 84.6931 220.608 86.5225 219.683 88.2386C218.759 89.9679 217.548 91.5496 216.089 92.8597C214.644 94.1751 213.097 95.4194 211.328 96.2919C210.766 96.5661 210.19 96.806 209.604 97.0195C209.63 97.0485 209.656 97.0749 209.682 97.1039C210.016 97.4887 210.263 97.9501 210.469 98.4193C210.526 98.5353 210.557 98.6618 210.602 98.7831L210.669 98.9781C210.701 99.0651 210.734 99.1574 210.753 99.2602C210.82 99.653 210.912 100.035 210.971 100.425L211.063 101.013L211.089 101.161L211.099 101.237L211.107 101.274L211.073 101.279L210.797 101.332L210.245 101.44C210.06 101.48 209.846 101.496 209.646 101.527L209.039 101.604L208.721 101.651C208.508 101.68 208.294 101.704 208.08 101.717C207.229 101.778 206.364 101.63 205.512 101.672C204.851 101.699 203.736 101.796 202.624 101.849C201.499 101.902 200.382 101.891 199.738 101.902C199.394 101.899 197.91 101.904 197.608 101.762H197.561C197.561 101.762 197.558 101.733 197.556 101.717C197.553 101.672 197.55 101.633 197.548 101.591C197.511 101.704 197.475 101.77 197.433 101.778C197.373 101.788 197.311 101.688 197.248 101.461C197.178 101.237 197.136 100.881 197.168 100.402C197.183 100.162 197.251 99.8981 197.35 99.6213C196.79 99.6846 196.227 99.7373 195.66 99.7663C193.878 99.8612 192.086 99.7215 190.31 99.7057C188.904 99.6899 187.495 99.6899 186.083 99.6161C186.169 99.9034 186.221 100.172 186.239 100.41C186.27 100.634 186.244 100.834 186.237 101.003C186.231 101.174 186.198 101.314 186.164 101.424C186.151 101.477 186.135 101.519 186.119 101.559C186.117 101.627 186.112 101.696 186.106 101.765H186.057C186.135 101.82 186.114 101.87 185.929 101.907C185.851 101.938 185.914 101.967 185.914 101.967C185.283 102.052 184.609 101.946 183.95 101.938C183.322 101.933 182.676 101.888 182.01 101.857C182.01 101.857 181.048 101.651 180.087 101.606C179.124 101.562 179.119 101.836 178.157 101.791C177.358 101.757 176.553 101.73 175.748 101.678C175.329 101.651 174.907 101.625 174.485 101.598L173.889 101.551C173.691 101.535 173.482 101.525 173.305 101.49L172.745 101.406L172.467 101.361C172.43 101.366 172.454 101.327 172.451 101.308L172.461 101.235L172.485 101.092C172.545 100.707 172.597 100.309 172.701 99.9324L172.847 99.3656C172.87 99.2734 172.894 99.1785 172.93 99.0889C172.967 99.0098 173.008 98.9149 173.029 98.8727L173.191 98.5484C173.248 98.443 173.316 98.3455 173.376 98.2427L173.561 97.9395L173.764 97.6495C173.852 97.523 173.943 97.3991 174.04 97.2752C172.456 96.661 170.883 95.9545 169.445 94.9844C167.904 93.9405 166.484 92.6726 165.31 91.1963C164.127 89.7228 163.231 88.0357 162.541 86.2958C161.848 84.5534 161.434 82.7213 161.166 80.8918C160.89 79.0518 161.033 77.2039 161.072 75.385C161.111 73.5634 161.124 71.7208 161.447 69.9124C161.754 68.1726 162.294 66.4881 162.846 64.8221C163.398 63.1561 163.906 61.4531 164.692 59.8715C165.481 58.2898 166.45 56.811 167.466 55.3769C168.49 53.9429 169.664 52.6301 170.904 51.3911C171.732 50.5555 172.594 49.7515 173.501 48.9975L173.313 48.8552L173.084 48.6838L172.865 48.4967L172.433 48.1171C172.287 47.9905 172.165 47.8429 172.029 47.7032C171.901 47.5582 171.763 47.4238 171.641 47.2735L171.279 46.8175L171.099 46.5881L170.94 46.343L170.63 45.8448C170.526 45.6787 170.456 45.4942 170.365 45.3202C170.281 45.1435 170.188 44.9696 170.112 44.7903L169.912 44.2367C169.847 44.0496 169.774 43.865 169.735 43.6752C169.521 42.9292 169.357 42.1595 169.297 41.3713C169.24 40.5857 169.289 39.787 169.422 39.0067C169.557 38.2264 169.813 37.4698 170.125 36.7475C170.44 36.0226 170.852 35.3504 171.31 34.7177C171.769 34.0851 172.362 33.5737 172.92 33.0491C173.23 32.7538 173.542 32.456 173.868 32.1739C173.923 31.9894 173.86 31.76 173.933 31.5781C174.011 31.3936 174.136 31.2354 174.225 31.0641C174.324 30.8717 174.384 30.6581 174.498 30.4736C174.613 30.2891 174.727 30.1046 174.855 29.9306C174.91 29.8568 174.972 29.7829 175.035 29.7118C174.795 29.4877 174.592 29.2056 174.467 28.884C174.352 28.6257 174.287 28.3463 174.277 28.0668C174.269 27.7821 174.295 27.5185 174.42 27.2312C174.42 27.2312 174.421 27.2303 174.423 27.2286V27.2233C174.509 27.0177 174.597 26.8147 174.688 26.6117C174.777 26.4087 174.863 26.2058 174.967 26.0028C175.069 25.7972 175.178 25.5942 175.287 25.3912C175.365 25.2436 175.457 25.1012 175.545 24.9589C175.543 24.951 175.537 24.9457 175.537 24.9378C175.431 24.6584 175.298 24.3895 175.204 24.1048C175.108 23.8201 175.003 23.538 174.92 23.2507C174.832 22.9633 174.738 22.676 174.665 22.3834C174.584 22.0908 174.678 21.7586 174.61 21.4687C174.561 21.1708 174.449 20.8835 174.417 20.5803C174.373 20.2824 174.24 19.9872 174.219 19.6787C174.206 19.3677 174.227 19.0593 174.243 18.7482C174.259 18.4345 174.305 18.1234 174.363 17.8097C174.391 17.6542 174.438 17.4987 174.48 17.3458C174.54 17.1929 174.581 17.0374 174.654 16.8871C174.774 16.5866 174.93 16.2808 175.162 16.0198C175.423 15.7299 175.772 15.4742 176.186 15.3819C176.6 15.2949 177.035 15.403 177.371 15.606C177.545 15.7061 177.704 15.8248 177.84 15.9645C177.913 16.0304 177.967 16.1095 178.03 16.1859C178.09 16.2624 178.126 16.3177 178.176 16.3863C178.353 16.6525 178.478 16.9636 178.684 17.2193C178.884 17.475 179.126 17.6964 179.345 17.9389C179.564 18.1814 179.824 18.3844 180.051 18.619C180.278 18.8536 180.52 19.0751 180.749 19.3097C180.785 19.3466 180.822 19.3835 180.858 19.4204C181.038 19.3018 181.22 19.1884 181.416 19.0804C181.796 18.8563 182.202 18.6559 182.616 18.4451C183.02 18.2605 183.429 18.0655 183.853 17.8994C184.059 17.8124 184.275 17.7491 184.492 17.6832L185.137 17.4855C185.565 17.3432 186.007 17.2614 186.44 17.1481C186.875 17.0347 187.291 16.8344 187.729 16.7474C188.177 16.6604 188.625 16.6235 189.057 16.5655C189.513 16.5022 189.956 16.4232 190.388 16.3915C190.776 16.3625 191.149 16.4021 191.505 16.4205C191.534 16.4232 191.565 16.4258 191.594 16.4258C191.742 16.4179 191.844 16.4152 191.901 16.4152L191.953 16.2597L192.045 15.9829L192.183 15.577L192.336 15.1736L192.636 14.367C192.86 13.8398 193.063 13.302 193.305 12.7801C193.558 12.266 193.779 11.7309 194.074 11.2353C194.355 10.7318 194.631 10.2204 194.975 9.75117L195.433 9.09478C195.597 8.88125 195.774 8.67827 195.944 8.47266C196.118 8.26968 196.28 8.05352 196.467 7.86108L197.032 7.28641L197.313 6.99907L197.616 6.73019L198.217 6.1977C198.423 6.02635 198.642 5.86818 198.853 5.70211C199.064 5.53603 199.272 5.36996 199.499 5.22497L200.165 4.77683C200.395 4.63448 200.632 4.50795 200.863 4.37615L201.215 4.18107L201.58 4.00973C201.824 3.89901 202.064 3.77511 202.314 3.68021C203.306 3.27162 204.346 2.98692 205.395 2.78921C207.492 2.40697 209.656 2.32789 211.766 2.69958C212.81 2.88411 213.829 3.1899 214.821 3.56159C215.316 3.74348 215.803 3.95173 216.287 4.16526C216.527 4.27334 216.769 4.38405 217.009 4.49741L217.272 4.62658L217.423 4.70566L217.444 4.68984L217.584 4.58967L217.866 4.40514C218.09 4.25752 218.319 4.12044 218.548 3.98073C219.006 3.71185 219.47 3.44824 219.949 3.21099C220.897 2.73121 221.884 2.31471 222.905 1.99838C223.926 1.67941 224.968 1.42107 226.025 1.23918C227.085 1.06783 228.164 0.986111 229.247 1.00193C230.328 1.03356 231.406 1.14691 232.472 1.35253C233.532 1.5766 234.586 1.8613 235.586 2.28308C237.597 3.095 239.511 4.17317 241.184 5.55185C241.598 5.89982 241.994 6.26623 242.4 6.62475C242.796 6.9938 243.163 7.38658 243.546 7.76618C243.741 7.95334 243.916 8.15896 244.093 8.3593L244.627 8.96561L244.892 9.26876L244.96 9.34257V9.34784L244.986 9.37421L245.132 9.52974C245.319 9.73799 245.497 9.94624 245.674 10.1624C245.986 10.5446 246.283 10.9453 246.562 11.3803C246.835 11.8179 247.098 12.2792 247.291 12.8565C247.385 13.1491 247.466 13.4549 247.46 13.8925C247.45 14.3327 247.294 14.8072 246.989 15.142C246.913 15.229 246.833 15.3081 246.742 15.3766C246.684 15.4188 246.63 15.461 246.572 15.4979C247.664 17.0136 248.695 18.5716 249.692 20.1612C250.252 21.0601 250.752 22.0012 251.211 22.9686C251.669 23.9387 252.096 24.9272 252.477 25.9659C252.638 26.414 252.787 26.8753 252.893 27.3762C252.94 27.6319 252.987 27.8876 252.998 28.1749C253.005 28.4596 253 28.7601 252.901 29.0976C252.807 29.4297 252.602 29.7935 252.3 30.0492C252.224 30.1177 252.146 30.1705 252.065 30.2179C251.984 30.2706 251.904 30.3181 251.82 30.3497C251.74 30.384 251.654 30.4262 251.575 30.4446L251.456 30.4789L251.396 30.4947H251.391C251.341 30.5184 251.281 30.5237 251.245 30.5211Z" fill="black"/>
<path d="M237.592 31.2908C237.36 31.246 237.058 31.0615 236.636 31.0193H236.576C236.537 31.0193 236.482 31.0246 236.417 31.0272C236.287 31.0351 236.115 31.0325 235.946 31.0536C235.605 31.072 235.602 31.0483 235.264 31.101C235.118 31.1405 234.972 31.1827 234.829 31.2302L234.407 31.3936C234.128 31.5043 233.826 31.5729 233.558 31.7231C233.289 31.8707 233.094 32.137 232.849 32.3136C232.599 32.4823 232.326 32.6326 232.089 32.8277C231.846 33.0254 231.662 33.2863 231.435 33.4946C231.211 33.7081 230.917 33.8557 230.698 34.0851C230.523 34.2564 230.26 34.5754 229.995 34.8917C229.893 35.013 229.791 35.1316 229.695 35.2423C229.479 35.0262 229.453 34.9945 229.377 34.9128L229.364 34.897C229.357 34.8812 229.349 34.8838 229.341 34.8917C229.346 34.8865 229.349 34.8812 229.351 34.8759C229.351 34.8759 229.609 34.5991 229.815 34.2933C230.023 33.9849 229.911 33.9058 230.135 33.6027C230.318 33.3496 230.51 33.0992 230.721 32.8646C230.932 32.6299 231.146 32.3953 231.383 32.1818C231.62 31.9683 231.917 31.8312 232.175 31.6467C232.435 31.4648 232.69 31.2697 232.977 31.1195C233.261 30.9718 233.568 30.869 233.87 30.7662C234.175 30.6634 234.48 30.5501 234.8 30.5C235.12 30.4525 235.443 30.4183 235.764 30.4314C236.089 30.442 236.389 30.6133 236.686 30.6766C237.121 30.7768 237.459 30.8717 237.688 30.9824C238.272 31.3066 238.204 31.4463 237.592 31.2908Z" fill="#FFFFFA"/>
<path d="M201.054 56.2521C201.041 56.8268 200.999 57.3988 200.936 57.9656C200.905 58.5113 200.822 59.0806 200.733 59.6685C200.673 59.94 200.616 60.2168 200.556 60.4962C200.501 60.7757 200.408 61.0498 200.335 61.3345C200.267 61.606 200.176 61.8723 200.085 62.1412C199.994 62.4127 199.905 62.6842 199.79 62.9505C199.587 63.4777 199.303 63.9706 199.051 64.4794C198.918 64.7298 198.78 64.9776 198.634 65.2175C198.48 65.4548 198.329 65.6946 198.183 65.9319C198.027 66.1691 197.897 66.4248 197.759 66.6726C197.616 66.9178 197.475 67.1656 197.308 67.387C196.962 67.8457 196.579 68.2596 196.212 68.6682C195.832 69.1031 195.456 69.5275 195.066 69.9019C194.641 70.3052 194.17 70.6057 193.751 70.9247C193.649 71.0011 193.511 71.1329 193.508 71.096C193.508 71.067 193.631 70.9484 193.704 70.8825C194.094 70.5345 194.563 70.2077 194.962 69.7832C195.326 69.3878 195.699 68.974 196.056 68.5258C196.402 68.104 196.626 67.5821 196.949 67.1261C197.105 66.902 197.267 66.6779 197.436 66.4565C197.597 66.2324 197.754 66.0004 197.897 65.7632C198.035 65.5233 198.157 65.2729 198.28 65.0277C198.4 64.7773 198.509 64.5216 198.631 64.2764C198.863 63.7729 199.113 63.2747 199.298 62.7607C199.402 62.4997 199.475 62.2308 199.551 61.9646C199.626 61.6983 199.702 61.4373 199.762 61.1737C199.824 60.8969 199.908 60.6307 199.949 60.3592C199.999 60.0876 200.046 59.8214 200.092 59.5578C200.165 58.991 200.264 58.448 200.277 57.9208C200.324 57.3751 200.29 56.8241 200.288 56.2758C200.238 55.7302 200.184 55.1871 200.087 54.6467C200.043 54.3778 200.03 54.101 199.983 53.8322C199.939 53.5606 199.892 53.2891 199.835 53.0202C199.785 52.7514 199.699 52.4904 199.618 52.2268L199.381 51.4386C199.29 51.1802 199.207 50.9193 199.121 50.6583C199.038 50.3947 198.96 50.1311 198.845 49.8806C198.618 49.3798 198.381 48.8842 198.118 48.4018C197.871 47.9115 197.649 47.4053 197.36 46.9361L196.511 45.5021C196.227 45.0144 195.899 44.5531 195.641 44.0522L195.235 43.3062C195.094 43.061 194.964 42.8106 194.844 42.5549C194.602 42.0435 194.318 41.5532 194.097 41.0312C193.876 40.5093 193.766 39.9425 193.571 39.4127C193.368 38.8854 193.099 38.3846 192.922 37.8468C192.737 37.3143 192.438 36.8187 192.282 36.273C192.198 36.0015 192.12 35.7274 192.045 35.4559L191.839 34.6308C191.685 34.0851 191.573 33.5289 191.451 32.9779C191.318 32.427 191.248 31.8628 191.138 31.3093C191.047 30.7504 190.94 30.1942 190.867 29.6327L190.753 28.6837C190.714 28.3674 190.693 28.0484 190.664 27.7321C190.633 27.4157 190.625 27.0968 190.62 26.7778C190.615 26.4615 190.599 26.1425 190.597 25.8262L190.563 24.8719C190.557 24.5529 190.555 24.2339 190.557 23.9176C190.573 23.2797 190.688 22.6523 190.735 22.0196C190.779 21.3869 190.802 20.7516 190.88 20.119C190.956 19.4889 191.005 18.851 191.117 18.2263C191.232 17.6226 191.349 17.0163 191.505 16.4205C191.534 16.4232 191.565 16.4258 191.594 16.4258C191.742 16.4179 191.844 16.4152 191.901 16.4152L191.953 16.2597C191.943 16.3256 191.933 16.3889 191.92 16.4548C191.802 17.069 191.576 17.6727 191.482 18.2948C191.393 18.9169 191.313 19.539 191.253 20.1664C191.193 20.7912 191.242 21.4212 191.216 22.046C191.188 22.6233 191.123 23.2006 191.12 23.7805C191.128 24.3578 191.12 24.9351 191.154 25.5125C191.172 26.0924 191.297 26.6592 191.339 27.2338C191.404 27.8059 191.367 28.3937 191.456 28.9658C191.498 29.2531 191.545 29.5378 191.602 29.8199C191.662 30.1019 191.722 30.384 191.771 30.6687C191.865 31.2381 192.037 31.789 192.146 32.3532C192.289 32.912 192.433 33.4682 192.589 34.0218C192.748 34.5754 192.935 35.1184 193.118 35.6641L193.378 36.4839L193.667 37.2959C193.766 37.5647 193.85 37.8415 193.951 38.1104C194.053 38.3793 194.152 38.6482 194.258 38.9144C194.464 39.4522 194.691 39.9794 194.923 40.5066C195.147 41.0339 195.321 41.5901 195.571 42.1094C195.813 42.6313 196.173 43.0927 196.438 43.6014C196.691 44.0944 196.928 44.5979 197.204 45.0803C197.483 45.5521 197.842 46.0003 198.123 46.4932C198.418 46.9809 198.639 47.5081 198.892 48.0169C199.157 48.5178 199.322 49.0687 199.548 49.5907C199.663 49.849 199.757 50.1205 199.855 50.3868C199.954 50.6557 200.053 50.9219 200.145 51.1934C200.223 51.4676 200.293 51.7444 200.366 52.0212C200.436 52.2953 200.514 52.5695 200.561 52.8542C200.619 53.1336 200.686 53.4104 200.757 53.6898C200.824 53.9692 200.863 54.2539 200.902 54.5386C200.991 55.1054 201.014 55.6801 201.054 56.2521Z" fill="#FFFFFA"/>
</svg>
