<svg width="282" height="282" viewBox="0 0 282 282" fill="none" xmlns="http://www.w3.org/2000/svg">
<path d="M281.841 35.7192C281.871 30.4928 281.98 25.2946 281.999 20.1335C282.008 17.6997 281.917 15.2703 281.815 12.8518L281.778 11.9448L281.758 11.4924L281.749 11.2662L281.741 10.8682C281.717 9.77204 281.695 8.67587 281.671 7.58187C281.628 5.40475 281.595 3.26025 281.584 1.10922C280.932 1.10922 280.288 1.1114 279.642 1.11357C277.312 1.09835 274.983 1.0853 272.649 1.07007L271.14 1.05267L270.168 1.03528L268.221 0.996126C265.624 0.943927 263.023 0.891729 260.415 0.880854C255.239 0.859104 250.039 1.38109 244.825 1.36369C239.645 1.34412 234.451 0.691633 229.237 0.674234C224.057 0.659009 218.859 0.935228 213.647 0.922178C208.46 0.922178 203.26 0.920003 198.046 0.917828C192.855 0.906953 187.652 0.40019 182.435 0.391491C177.245 0.382791 172.041 1.50289 166.832 1.49636C161.642 1.48984 156.446 0.130497 151.239 0.123972C146.048 0.104398 140.847 0.084823 135.641 0.0652484C130.447 0.0608985 125.244 1.33759 120.038 1.33542C114.842 1.33324 109.641 1.0592 104.437 1.0592C99.2385 1.0592 94.0382 0.00217495 88.8358 0C83.6376 0 78.4352 1.00048 73.2349 1.00265C68.0324 1.00265 62.8277 0.387141 57.6274 0.389316C52.4271 0.389316 47.229 1.17012 42.0309 1.1723C36.8328 1.17447 31.6368 0.737307 26.4452 0.741657C23.8461 0.741657 21.2471 0.841705 18.6502 0.941752C17.3517 0.991776 16.0533 1.0418 14.7548 1.07877L12.8083 1.12445L11.8339 1.1375L10.5985 1.14185C7.4318 1.14185 4.2281 1.02005 0.802558 0.859104C0.645962 3.86488 0.450217 7.00551 0.295795 10.318L0.267521 10.94L0.254471 11.2488L0.241422 11.4098L0.189223 12.0514C0.156599 12.4799 0.128324 12.9083 0.1044 13.3368C0.056551 14.1937 0.0282767 15.0506 0.0282767 15.9054C0.0304516 21.11 1.50942 26.3038 1.51159 31.4932C1.51377 36.6957 -0.00217261 41.896 2.3381e-06 47.0811C0.00217729 52.2858 1.60076 57.4795 1.60294 62.6624C1.60511 67.8671 0.709035 73.063 0.71121 78.2438C0.713385 83.4484 0.408893 88.6422 0.408893 93.8207C0.408893 99.0319 1.39849 104.228 1.39849 109.406C1.39849 114.62 0.132674 119.816 0.132674 124.992C0.132674 130.205 1.40937 135.399 1.40719 140.576C1.42242 145.774 1.55727 150.97 1.57249 156.17C1.58771 161.368 1.34847 166.571 1.36369 171.769C1.37892 176.967 1.74214 182.163 1.75736 187.363C1.77476 192.561 0.695986 197.77 0.713385 202.968C0.730785 208.166 1.73561 213.356 1.75301 218.554C1.77259 223.752 1.92483 228.95 1.94658 234.148C1.96833 239.346 1.15272 244.553 1.17447 249.751C1.1984 254.95 1.355 260.146 1.38109 265.344L1.40719 281.277L8.04731 281.262C13.6891 281.247 19.3309 281.229 24.9728 281.214C30.1709 281.182 35.369 281.147 40.5671 281.114C45.7653 281.077 50.946 280.24 56.1441 280.199C61.3422 280.157 66.5512 280.688 71.7494 280.642C76.9475 280.597 82.15 280.718 87.3459 280.668C92.544 280.618 97.7661 281.449 102.962 281.395C108.16 281.34 113.339 280.566 118.535 280.505C123.733 280.444 128.94 280.725 134.138 280.657C139.336 280.59 144.53 280.399 149.726 280.327C154.924 280.255 160.104 279.761 165.3 279.681C170.499 279.603 175.662 278.787 180.86 278.702C186.056 278.617 191.326 280.138 196.52 280.044C201.716 279.951 206.89 279.333 212.084 279.233C217.279 279.133 222.467 278.844 227.661 278.737C232.856 278.628 238.046 278.437 243.242 278.322C248.438 278.204 253.603 277.628 258.797 277.502C263.984 277.375 269.172 277.249 274.357 277.123H274.376C274.376 277.123 273.387 278.058 273.674 278.189C274.559 278.163 276.954 277.519 277.062 277.278C277.095 277.206 277.001 277.156 276.825 277.123H277.069V276.912C277.312 276.508 277.563 275.583 277.591 274.809C277.795 269.182 277.515 263.517 277.68 257.89C277.847 252.259 277.56 246.609 277.697 240.978C277.832 235.347 278.715 229.764 278.828 224.131C278.941 218.497 279.394 212.882 279.492 207.249C279.581 202.092 279.224 196.876 279.311 191.646C279.398 186.482 279.139 181.269 279.224 176.045C279.307 170.868 279.846 165.685 279.927 160.463C279.994 155.285 280.062 150.084 280.129 144.871C280.205 139.682 280.625 134.49 280.697 129.279C280.768 124.083 281.005 118.883 281.073 113.676C281.14 108.476 279.951 103.234 280.012 98.0336C280.072 92.8333 281.356 87.6721 281.41 82.4827C281.464 77.2737 281.719 72.0778 281.765 66.8927C281.812 61.6815 281.273 56.4704 281.312 51.2962C281.351 46.0763 281.808 40.8847 281.838 35.7148L281.841 35.7192Z" fill="currentColor"/>
</svg>
