<svg width="1440" height="262" viewBox="0 0 1440 262" fill="none" xmlns="http://www.w3.org/2000/svg">
<path d="M210.327 211.286H207.512C206.742 211.286 206.13 211.898 206.108 212.661C205.67 224.386 199.957 250.797 186.682 250.797C178.01 250.797 173.543 242.021 166.758 214.105C163.15 199.267 155.634 170.391 152.69 155.408C141.151 96.6437 125.197 48.3559 73.9377 48.3559C54.3835 48.3559 41.2065 62.8997 34.3916 76.5666C33.7274 77.8894 31.7501 77.4057 31.7501 75.9241V50.2834C31.7501 49.331 30.8218 48.6507 29.9162 48.9455L0 58.5305V253.549H58.4664C59.2437 253.549 59.8777 252.914 59.8777 252.143V249.323C59.8777 248.545 59.2437 247.91 58.4664 247.91C43.7121 247.91 31.7501 235.928 31.7501 221.15V107.771C31.7501 94.4137 35.4708 81.2155 43.0555 70.2245C47.4176 63.9126 52.376 59.0974 56.8438 58.3037C87.4468 52.8989 99.5446 92.8943 112.465 145.627C117.001 164.124 125.491 201.277 130.193 219.737C138.125 250.865 155.083 261.811 172.388 261.811C202.621 261.811 211.368 233.351 211.745 212.707C211.76 211.921 211.111 211.286 210.327 211.286Z" fill="black"/>
<path d="M315.026 47.8872C263.759 47.8872 222.205 95.8197 222.205 154.94C222.205 214.06 263.759 262 315.026 262C366.292 262 407.838 214.067 407.838 154.94C407.838 95.8122 366.285 47.8872 315.026 47.8872ZM332.12 252.045C301.524 257.449 269.065 218.354 259.623 164.729C250.182 111.097 267.336 63.2474 297.932 57.8426C328.527 52.4378 360.979 91.5337 370.421 145.158C379.862 198.79 362.715 246.64 332.12 252.045Z" fill="black"/>
<path d="M518.726 142.286H518.719L486.704 126.548C466.35 115.92 458.984 103.802 458.984 90.2108C458.984 81.6463 464.75 74.1855 470.652 67.8282C476.546 61.4861 484.659 55.4841 494.983 55.4841C529.05 55.4841 543.186 78.3581 549.14 112.752C549.261 113.425 549.835 113.924 550.514 113.924H554.529C555.404 113.924 556.061 113.138 555.917 112.276L543.601 40.6077C543.48 39.935 542.899 39.4361 542.212 39.4361H539.624C538.801 39.4361 538.167 40.1693 538.235 40.9932C540.182 64.4039 528.605 55.469 521.866 52.3244C512.96 48.1669 503.904 47.8872 496.093 47.8872C478.244 47.8872 463.422 53.2088 451.626 63.8445C439.822 74.4803 433.921 88.0716 433.921 104.619C433.921 118.059 438.2 129.73 446.758 139.625C455.316 149.52 471.482 159.339 489.625 169.091L514.394 183.279C523.677 188.744 530.167 194.353 533.858 200.121C537.541 205.881 539.382 211.86 539.382 218.066C539.382 227.818 536.19 235.755 529.782 241.885C523.383 248.016 511.851 253.897 500.817 253.897C467.897 253.897 444.751 223.29 436.517 188.563C436.366 187.928 435.815 187.489 435.166 187.489H430.54C429.702 187.489 429.053 188.215 429.143 189.054L437.264 260.745C437.347 261.456 437.943 262 438.66 262H441.936C442.637 262 443.211 261.456 443.324 260.768C445.664 245.498 457.354 253.254 467.95 257.064C478.84 260.98 489.149 261.494 497.987 261.494C519.035 261.494 536.077 255.953 549.11 244.879C562.136 233.797 568.657 219.548 568.657 202.109C568.657 179.363 550.137 159.422 518.726 142.286Z" fill="black"/>
<path d="M680.661 47.8872C629.402 47.8872 587.841 95.8197 587.841 154.94C587.841 214.06 629.402 262 680.661 262C731.92 262 773.482 214.067 773.482 154.94C773.482 95.8122 731.92 47.8872 680.661 47.8872ZM697.755 252.045C667.16 257.449 634.708 218.354 625.267 164.729C615.825 111.097 632.972 63.2474 663.568 57.8426C694.163 52.4378 726.622 91.5337 736.064 145.158C745.505 198.79 728.351 246.64 697.755 252.045Z" fill="black"/>
<path d="M907.033 211.286H904.21C903.456 211.286 902.859 211.875 902.807 212.631C901.969 224.34 890.845 250.797 871.924 250.797C857.857 250.797 843.797 242.278 843.797 197.203V63.3834C843.797 62.6048 844.423 61.9774 845.201 61.9774H898.641C899.418 61.9774 900.044 61.3425 900.044 60.5639V57.7519C900.044 56.9733 899.418 56.3383 898.641 56.3383H845.201C844.423 56.3383 843.797 55.7109 843.797 54.9323V1.406C843.797 0.627409 843.163 0 842.385 0H839.389C838.695 0 838.106 0.536699 838.008 1.23214C832.129 45.2793 809.654 56.3383 767.852 56.3383V60.5639C767.852 61.3425 768.486 61.9774 769.263 61.9774H808.635C809.413 61.9774 810.039 62.6048 810.039 63.3834V200.023L810.092 200.091C811.133 259.218 843.646 261.811 860.672 261.811C890.897 261.811 907.705 233.374 908.459 212.729C908.482 211.936 907.825 211.286 907.033 211.286Z" fill="black"/>
<path d="M1099.36 56.2627C1058.84 42.6411 1018.46 42.7772 988.163 82.0318C987.34 83.1052 985.635 82.5459 985.635 81.1852V50.2834C985.635 49.3234 984.706 48.6507 983.801 48.9379L916.293 70.5797C915.712 70.7612 915.312 71.3054 915.312 71.9177V74.6163C915.312 75.5612 916.233 76.2415 917.131 75.9619L950.058 65.8175C950.964 65.5378 951.877 66.2181 951.877 67.163V221.143C951.877 235.928 939.915 247.91 925.161 247.91C924.383 247.91 923.749 248.537 923.749 249.316V252.135C923.749 252.914 924.383 253.541 925.161 253.541H1012.35C1013.13 253.541 1013.75 252.914 1013.75 252.135V249.316C1013.75 248.537 1013.13 247.91 1012.35 247.91C997.596 247.91 985.635 235.928 985.635 221.143V116.26C985.635 94.0509 998.63 73.4673 1019.23 65.2279C1045.75 54.6148 1066.37 68.0928 1074.78 100.673C1075.1 101.905 1076.79 102.079 1077.38 100.96L1100.16 58.281C1100.57 57.51 1100.19 56.5424 1099.36 56.2627Z" fill="black"/>
<path d="M1315.82 211.286C1315.82 222.156 1310.19 250.797 1296.37 250.797C1287.69 250.797 1283.23 242.021 1276.44 214.105C1272.83 199.267 1265.32 170.391 1262.37 155.408C1250.84 96.6437 1234.88 48.3559 1183.62 48.3559C1144.82 48.3559 1122.41 67.0496 1113.68 81.9563C1113.43 82.3947 1113.31 82.886 1113.31 83.3925C1113.31 86.1289 1116.79 87.2779 1118.39 85.0631C1127.53 72.3259 1147.09 58.3037 1166.53 58.3037C1193.2 58.3037 1205.55 83.8083 1216.68 124.393L1216.6 124.371C1216.6 124.371 1105.77 149.928 1105.77 214.415C1105.77 250.729 1133 261.811 1151.28 261.811C1194.75 261.811 1226.22 231.499 1239.08 216.577C1239.36 217.673 1239.62 218.747 1239.88 219.737C1247.81 250.865 1264.76 261.811 1282.06 261.811C1313.01 261.811 1321.44 232.02 1321.44 211.286H1315.82ZM1175.18 236.639C1152.69 236.639 1144.25 216.925 1144.25 200.015C1144.25 158.999 1197.6 136.42 1218 129.284C1219.39 134.515 1220.76 139.958 1222.14 145.627C1225.85 160.753 1232.21 188.336 1236.97 207.99C1230.71 217.454 1213.33 236.639 1175.18 236.639Z" fill="black"/>
<path d="M1436.24 241.885C1429.85 248.016 1418.32 253.897 1407.28 253.897C1374.36 253.897 1351.21 223.29 1342.98 188.563C1342.83 187.928 1342.27 187.489 1341.63 187.489H1337C1336.16 187.489 1335.51 188.215 1335.6 189.054L1343.72 260.745C1343.81 261.456 1344.41 262 1345.12 262H1348.39C1349.1 262 1349.68 261.456 1349.78 260.768C1352.12 245.498 1363.81 253.254 1374.41 257.064C1385.3 260.98 1395.61 261.494 1404.45 261.494C1417.95 261.494 1429.8 259.211 1440 254.652V237.576C1438.91 239.103 1437.65 240.532 1436.24 241.885ZM1401.45 55.4841C1419.11 55.4841 1431.41 61.6373 1440 72.3561V56.5953C1436.48 57.0489 1431.77 53.9345 1428.32 52.3244C1419.42 48.1669 1410.37 47.8872 1402.55 47.8872C1384.7 47.8872 1369.88 53.2088 1358.09 63.8445C1346.28 74.4803 1340.39 88.0716 1340.39 104.619C1340.39 118.059 1344.67 129.73 1353.22 139.625C1361.78 149.52 1377.94 159.339 1396.08 169.091L1420.85 183.279C1429.89 188.593 1436.27 194.043 1440 199.645V151.228C1435.45 148.167 1430.51 145.189 1425.19 142.286H1425.18L1393.16 126.548C1372.82 115.92 1365.45 103.802 1365.45 90.2108C1365.45 81.6463 1371.21 74.1855 1377.11 67.8282C1383.01 61.4861 1391.12 55.4841 1401.45 55.4841Z" fill="black"/>
</svg>
