<svg width="120" height="68" viewBox="0 0 120 68" fill="none" xmlns="http://www.w3.org/2000/svg">
<path d="M25.9332 39.3214C25.2891 39.3214 24.7532 39.5367 24.3159 39.9675C23.8834 40.3983 23.6671 40.9367 23.6671 41.5782V63.477C23.6671 64.1184 23.8834 64.6569 24.3159 65.0877C24.7485 65.5184 25.2891 65.7338 25.9332 65.7338C26.3235 65.7338 26.5209 65.9305 26.5209 66.3191V66.6094C26.5209 66.9699 26.3235 67.1525 25.9332 67.1525H16.535C16.1448 67.1525 15.9473 66.9699 15.9473 66.6094V66.3191C15.9473 65.9305 16.1401 65.7338 16.535 65.7338C17.1791 65.7338 17.7151 65.5184 18.1523 65.0877C18.5849 64.6569 18.8011 64.1184 18.8011 63.477V52.9466C18.8011 53.1433 18.8999 53.2369 19.0973 53.2369H7.38599C7.57875 53.2369 7.68218 53.1386 7.68218 52.9466V63.477C7.68218 64.1184 7.89845 64.6569 8.33098 65.0877C8.76352 65.5184 9.30418 65.7338 9.94828 65.7338C10.3385 65.7338 10.536 65.9305 10.536 66.3191V66.6094C10.536 66.9699 10.3385 67.1525 9.94828 67.1525H0.545369C0.178655 67.1525 0 66.9699 0 66.6094V66.3191C0 65.9305 0.183357 65.7338 0.545369 65.7338C1.18947 65.7338 1.73484 65.5184 2.18148 65.0877C2.62811 64.6569 2.85378 64.1184 2.85378 63.477V41.5782C2.85378 40.9367 2.62811 40.4029 2.18148 39.9675C1.73484 39.5367 1.18947 39.3214 0.545369 39.3214C0.178655 39.3214 0 39.1247 0 38.7361V38.4411C0 38.0806 0.183357 37.898 0.545369 37.898H9.94358C10.3338 37.898 10.5313 38.0806 10.5313 38.4411V38.7361C10.5313 39.1247 10.3338 39.3214 9.94358 39.3214C9.29948 39.3214 8.76352 39.5367 8.32628 39.9675C7.89375 40.3983 7.67748 40.9367 7.67748 41.5782V52.1085C7.67748 51.9119 7.57875 51.8135 7.38129 51.8135H19.0879C18.8905 51.8135 18.7917 51.9119 18.7917 52.1085V41.5782C18.7917 40.9367 18.5755 40.4029 18.1429 39.9675C17.7104 39.5367 17.1697 39.3214 16.5256 39.3214C16.1354 39.3214 15.9379 39.1247 15.9379 38.7361V38.4411C15.9379 38.0806 16.1307 37.898 16.5256 37.898H25.9238C26.3141 37.898 26.5115 38.0806 26.5115 38.4411V38.7361C26.5115 39.1247 26.3141 39.3214 25.9238 39.3214H25.9332Z" fill="#FFFFFA"/>
<path d="M45.2045 51.3172C45.2609 51.4296 45.2891 51.542 45.2891 51.6497C45.2891 51.9025 45.1763 52.0945 44.9553 52.2349L32.8256 59.2583C32.4918 59.4549 32.3225 59.7312 32.3225 60.0964C32.3225 60.2088 32.3507 60.3211 32.4071 60.4335C33.023 62.1051 33.8411 63.477 34.8613 64.5492C35.8815 65.6214 36.9252 66.188 37.9878 66.2395C38.6601 66.2114 39.276 66.0569 39.8354 65.7806C40.3949 65.5044 40.9027 65.1485 41.3681 64.7131C41.8336 64.2776 42.2426 63.7954 42.6046 63.2522C42.9666 62.7091 43.291 62.1753 43.5684 61.6415C43.7094 61.4449 43.874 61.3465 44.0715 61.3465C44.1561 61.3465 44.2548 61.3746 44.3677 61.4308L44.7861 61.6415C44.9835 61.782 45.0823 61.9599 45.0823 62.1847L45.04 62.3532C44.1984 64.0529 43.0795 65.4201 41.6831 66.4502C40.2821 67.4803 38.6742 67.9953 36.8547 67.9953C35.5101 67.9953 34.2548 67.705 33.0795 67.1197C31.9041 66.5345 30.8745 65.7385 29.9953 64.7365C29.1161 63.7345 28.4156 62.5639 27.8984 61.2248C27.3813 59.8857 27.1227 58.4529 27.1227 56.9218C27.1227 55.3908 27.3813 53.9533 27.8984 52.6189C28.4156 51.2798 29.1161 50.1092 29.9953 49.1072C30.8792 48.1052 31.9041 47.3092 33.0795 46.724C34.2548 46.1387 35.5148 45.8484 36.8547 45.8484C38.6178 45.8484 40.2116 46.3213 41.6408 47.2718C43.0653 48.2176 44.2125 49.4865 45.0823 51.0737L45.2092 51.3219L45.2045 51.3172ZM41.3023 52.7781C41.2177 52.8062 41.1754 52.8764 41.1754 52.9888V53.0731C40.5313 51.4577 39.7226 50.142 38.74 49.1213C37.7621 48.1052 36.7372 47.5949 35.6747 47.5949C34.8613 47.5949 34.1843 47.8664 33.6389 48.4096C33.0936 48.9527 32.661 49.6082 32.3366 50.3714C32.0122 51.1393 31.7819 51.9446 31.6455 52.7968C31.5045 53.649 31.4339 54.3794 31.4339 54.9928C31.4339 55.6061 31.4669 56.2102 31.5374 56.8095C31.6079 57.4088 31.7113 58.0128 31.8524 58.6262C31.8242 58.4576 31.7395 58.378 31.5985 58.378C31.5421 58.378 31.5092 58.3874 31.4951 58.3968C31.481 58.4108 31.4575 58.4155 31.4339 58.4155L41.2976 52.7734L41.3023 52.7781Z" fill="#FFFFFA"/>
<path d="M54.6403 65.7759C55.0306 65.7759 55.228 65.9585 55.228 66.3191V66.6094C55.228 66.9699 55.0306 67.1525 54.6403 67.1525H45.9097C45.5477 67.1525 45.3644 66.9699 45.3644 66.6094V66.3191C45.3644 65.9585 45.5477 65.7759 45.9097 65.7759C46.5538 65.7759 47.0898 65.5512 47.527 65.1064C47.9596 64.6616 48.1758 64.1325 48.1758 63.5191V37.7715C48.1758 37.9682 48.2746 38.0665 48.472 38.0665H48.5143L45.1152 39.0685C44.725 39.0685 44.5275 38.8859 44.5275 38.5254V38.2725C44.5275 37.9963 44.6544 37.8137 44.9036 37.7294L51.7866 35.5568C52.1768 35.5568 52.3742 35.7395 52.3742 36.1V63.5191C52.3742 64.1325 52.5999 64.6616 53.0465 65.1064C53.4932 65.5512 54.0244 65.7759 54.6403 65.7759Z" fill="#FFFFFA"/>
<path d="M78.8716 62.1004C78.8716 62.7138 78.8105 63.3599 78.6836 64.0435C78.5566 64.7271 78.3263 65.3592 77.9925 65.9445C77.6587 66.5298 77.2073 67.0167 76.6479 67.4054C76.0884 67.794 75.3738 67.9906 74.5087 67.9906C73.5308 67.9906 72.6187 67.6582 71.7818 66.9886C70.9403 66.3191 70.315 65.1485 69.8919 63.477L69.8072 63.1445L70.5219 63.3131C70.1881 63.7017 69.7367 64.1653 69.1772 64.6943C68.6178 65.2234 67.9455 65.7338 67.165 66.2207C66.3799 66.7077 65.5148 67.1244 64.5651 67.4756C63.6154 67.8221 62.5623 68 61.4198 68C60.9168 68 60.3714 67.9157 59.7837 67.7518C59.1961 67.5833 58.6554 67.2977 58.1664 66.895C57.6775 66.4923 57.2637 65.9632 56.9299 65.3077C56.5961 64.6522 56.4269 63.8375 56.4269 62.8636C56.4269 62.0255 56.5961 61.2482 56.9299 60.5225C57.2637 59.7967 57.7057 59.1365 58.2511 58.5372C58.7964 57.9379 59.4123 57.3948 60.0987 56.9078C60.7851 56.4209 61.4904 55.9948 62.2191 55.6342C63.8975 54.7446 65.8157 54.0189 67.969 53.4617L68.0536 53.5038L67.5505 54.0048C67.2967 53.0309 67.024 52.16 66.7325 51.3921C66.4363 50.6243 66.1166 49.9687 65.7687 49.4256C65.4208 48.8825 65.0118 48.4657 64.551 48.1708C64.0903 47.8758 63.5496 47.7306 62.9337 47.7306C62.4871 47.7306 62.0357 47.8102 61.5891 47.9601C61.1425 48.1146 60.724 48.3019 60.3291 48.5219C59.9389 48.7467 59.5816 49.0042 59.2572 49.2945C58.9375 49.5895 58.6601 49.8891 58.4391 50.1935C58.3263 50.3901 58.1429 50.4885 57.8937 50.4885C57.6963 50.4885 57.5317 50.4276 57.3907 50.3012C57.2496 50.1748 57.1791 50.0015 57.1791 49.7768C57.1791 49.7206 57.2073 49.6082 57.2638 49.4443C57.5129 49.0557 57.8514 48.6484 58.2699 48.2316C58.6883 47.8149 59.2007 47.431 59.8025 47.0845C60.4043 46.738 61.1095 46.4524 61.9229 46.2276C62.7362 46.0029 63.6436 45.8952 64.6497 45.8952C66.0226 45.8952 67.1697 46.1902 68.0912 46.7708C69.0127 47.3561 69.7837 48.1427 70.3996 49.1306C71.0155 50.1186 71.5186 51.2844 71.9088 52.6189C72.299 53.958 72.6516 55.3767 72.9572 56.8844C73.07 57.4416 73.2205 58.1299 73.418 58.9539C73.6154 59.778 73.8082 60.5646 74.0056 61.3138C74.0621 61.5947 74.1185 61.8429 74.1749 62.0676C74.2313 62.2924 74.2877 62.5124 74.3441 62.7372C74.6497 63.992 74.9177 64.8535 75.1387 65.3264C75.3644 65.7993 75.6276 66.0381 75.9379 66.0381C76.2153 66.0381 76.4551 65.8836 76.6526 65.5793C76.85 65.2749 77.0099 64.9097 77.1368 64.493C77.2638 64.0763 77.3531 63.6455 77.4095 63.196C77.4659 62.7512 77.4941 62.386 77.4941 62.1098H78.8811L78.8716 62.1004ZM63.8082 64.6522C64.645 64.6522 65.3879 64.5632 66.032 64.3806C66.6761 64.198 67.2261 63.978 67.6916 63.7111C68.1523 63.4442 68.5378 63.1679 68.8434 62.873C69.149 62.578 69.3888 62.3205 69.5581 62.1004C69.417 61.6275 69.2901 61.1312 69.1819 60.6161C69.0691 60.1011 68.9422 59.5767 68.8058 59.0476C68.6648 58.4904 68.5378 57.9566 68.4297 57.4369C68.3169 56.9219 68.204 56.4677 68.0959 56.079C68.0395 55.8028 67.9925 55.5968 67.9502 55.475C67.9079 55.3486 67.8608 55.1613 67.8044 54.9085C67.2732 55.1051 66.6244 55.3814 65.8533 55.7466C65.0823 56.1071 64.3488 56.5613 63.6483 57.1045C62.9478 57.6476 62.3554 58.275 61.8665 58.9867C61.3775 59.6984 61.133 60.4991 61.133 61.3887C61.133 61.7492 61.1801 62.1285 61.2788 62.5171C61.3775 62.9057 61.5327 63.2616 61.7395 63.5847C61.9511 63.9077 62.2238 64.1653 62.5576 64.3572C62.8914 64.5539 63.3145 64.6522 63.8176 64.6522H63.8082Z" fill="#FFFFFA"/>
<path d="M99.9812 63.5191C100.15 63.5191 100.282 63.58 100.381 63.7064C100.48 63.8328 100.541 63.9639 100.569 64.1044C100.541 64.6335 100.409 65.1345 100.169 65.6074C99.9295 66.0803 99.6145 66.5017 99.2243 66.8622C98.834 67.2228 98.378 67.5037 97.8608 67.7003C97.3437 67.8923 96.7889 67.9906 96.2059 67.9906C95.6229 67.9906 95.0541 67.8595 94.504 67.5926C93.9539 67.3258 93.5026 66.9184 93.1406 66.3612C93.2252 66.4455 93.2957 66.4876 93.3521 66.4876C93.4086 66.4876 93.465 66.4595 93.5214 66.4034C92.8491 66.9324 92.0733 67.3304 91.1895 67.5926C90.3103 67.8595 89.4499 67.9906 88.6084 67.9906C87.2637 67.9906 86.0085 67.7003 84.8331 67.1151C83.6577 66.5298 82.6281 65.7338 81.7489 64.7318C80.8698 63.7298 80.1693 62.5593 79.6521 61.2201C79.1349 59.881 78.8764 58.4483 78.8764 56.9172C78.8764 55.3861 79.1349 53.9486 79.6521 52.6142C80.1693 51.2751 80.8698 50.1045 81.7489 49.1025C82.6328 48.1005 83.6577 47.3046 84.8331 46.7193C86.0085 46.134 87.2684 45.8437 88.6084 45.8437C90.0893 45.8437 91.4763 46.2042 92.7645 46.93L92.6798 46.8878C92.4824 46.8878 92.3836 46.9862 92.3836 47.1828V37.7388C92.3836 37.9354 92.4824 38.0337 92.6798 38.0337H92.7221L89.323 39.0357C89.1819 39.0357 89.0503 38.9889 88.9234 38.8906C88.7964 38.7923 88.7353 38.6612 88.7353 38.4926V38.2444C88.7353 37.9916 88.8622 37.8137 89.1114 37.7013L96.0367 35.5288C96.1777 35.5288 96.3093 35.5756 96.4363 35.6739C96.5632 35.7722 96.6244 35.9033 96.6244 36.0719V62.8215C96.6244 64.0763 96.7137 64.9238 96.897 65.3686C97.0804 65.8134 97.3249 66.0381 97.6305 66.0381C98.0489 66.0381 98.4015 65.8228 98.6789 65.392C98.9563 64.9612 99.1114 64.5071 99.1396 64.0341C99.196 63.697 99.3935 63.5332 99.7273 63.5332H99.9765L99.9812 63.5191ZM89.7414 66.4455C90.7193 66.4455 91.4057 66.1693 91.796 65.6074C92.1862 65.0502 92.3836 64.2964 92.3836 63.3506V52.0664C92.3836 51.453 92.2708 50.8911 92.0498 50.3761C91.8242 49.861 91.5186 49.4069 91.1283 49.0182C90.7381 48.6296 90.2821 48.3206 89.7649 48.1005C89.2478 47.8758 88.693 47.7681 88.1053 47.7681C87.7386 47.7681 87.3907 47.8102 87.0569 47.8945H87.0146C86.4551 48.0631 85.9473 48.3627 85.4819 48.7935C85.0212 49.2243 84.6215 49.7627 84.2877 50.4042C83.9539 51.0457 83.6906 51.7854 83.512 52.6189C83.3286 53.457 83.2393 54.3466 83.2393 55.2924C83.2393 56.2382 83.3239 57.1325 83.4932 58.0503C83.7188 59.2208 84.0433 60.3211 84.4805 61.3512C84.913 62.3813 85.4114 63.2756 85.9708 64.0248C86.5303 64.7786 87.1321 65.3686 87.7762 65.7994C88.4203 66.2301 89.0785 66.4455 89.7508 66.4455H89.7414Z" fill="#FFFFFA"/>
<path d="M110.306 45.8437C111.65 45.8437 112.905 46.134 114.081 46.7193C115.256 47.3046 116.286 48.1005 117.165 49.1025C118.049 50.1045 118.74 51.2751 119.243 52.6142C119.746 53.9533 120 55.3861 120 56.9172C120 58.4483 119.751 59.8857 119.243 61.2201C118.735 62.5546 118.049 63.7298 117.165 64.7318C116.286 65.7338 115.256 66.5298 114.081 67.1151C112.905 67.7003 111.646 67.9953 110.306 67.9953C108.966 67.9953 107.706 67.7003 106.53 67.1151C105.355 66.5298 104.325 65.7338 103.446 64.7318C102.567 63.7298 101.866 62.5593 101.349 61.2201C100.832 59.881 100.574 58.4483 100.574 56.9172C100.574 55.3861 100.832 53.9486 101.349 52.6142C101.866 51.2798 102.567 50.1045 103.446 49.1025C104.33 48.1005 105.355 47.3046 106.53 46.7193C107.706 46.134 108.966 45.8437 110.306 45.8437ZM111.439 66.2395C112.252 66.2395 112.929 65.9679 113.474 65.4248C114.02 64.8816 114.452 64.2261 114.777 63.4582C115.096 62.6904 115.327 61.885 115.468 61.0328C115.609 60.1854 115.679 59.4503 115.679 58.8369C115.679 57.8911 115.595 56.9406 115.43 55.9948C115.205 54.8242 114.875 53.7239 114.443 52.6938C114.01 51.6637 113.512 50.7694 112.953 50.0202C112.393 49.2664 111.782 48.6764 111.128 48.2457C110.47 47.8149 109.807 47.5995 109.135 47.5995C108.298 47.5995 107.602 47.8664 107.057 48.3955C106.512 48.9246 106.079 49.5801 105.755 50.3574C105.43 51.1393 105.209 51.9446 105.082 52.7828C104.955 53.6209 104.894 54.356 104.894 54.9975C104.894 55.9152 104.979 56.8657 105.148 57.8396C105.374 59.0101 105.698 60.1104 106.135 61.1405C106.568 62.1706 107.066 63.0649 107.626 63.8141C108.185 64.5679 108.792 65.1579 109.45 65.5887C110.108 66.0194 110.771 66.2348 111.443 66.2348L111.439 66.2395Z" fill="#FFFFFA"/>
<path d="M15.8016 4.37788C17.4941 4.99126 18.9704 5.90897 20.2304 7.13572C21.4904 8.36246 22.4918 9.88887 23.2299 11.7103C23.9727 13.5363 24.3441 15.6621 24.3441 18.0828C24.3441 20.5035 23.9727 22.7229 23.2299 24.563C22.4871 26.4031 21.4857 27.9295 20.2304 29.1375C18.9704 30.3502 17.4941 31.2492 15.8016 31.8345C14.1091 32.4197 12.3131 32.71 10.409 32.71H0.545369C0.178655 32.71 0 32.5274 0 32.1669V31.8766C0 31.488 0.183357 31.2913 0.545369 31.2913C1.18947 31.2913 1.73484 31.0759 2.18148 30.6452C2.62811 30.2144 2.85378 29.676 2.85378 29.0345V7.13572C2.85378 6.49425 2.62811 5.96048 2.18148 5.52503C1.73484 5.09426 1.18947 4.87888 0.545369 4.87888C0.178655 4.87888 0 4.68223 0 4.2936V3.99862C0 3.63809 0.183357 3.45548 0.545369 3.45548H10.409C12.3131 3.45548 14.1091 3.76451 15.8016 4.3732V4.37788ZM10.409 31.2913C11.4998 31.2913 12.5905 30.9448 13.6812 30.2472C14.772 29.5495 15.7593 28.6084 16.6385 27.4238C17.5223 26.2392 18.2323 24.8486 18.7776 23.2426C19.323 21.6413 19.5957 19.9182 19.5957 18.0828C19.5957 16.2473 19.323 14.5243 18.7776 12.923C18.2323 11.3216 17.5176 9.92632 16.6385 8.74172C15.7593 7.55712 14.772 6.61599 13.6812 5.91834C12.5905 5.22068 11.4998 4.8742 10.409 4.8742H9.82134C9.23366 4.8742 8.73061 5.0849 8.31218 5.50162C7.89375 5.91834 7.68218 6.41933 7.68218 7.00461V29.1609C7.68218 29.7462 7.89375 30.2472 8.31218 30.6639C8.73061 31.0806 9.23366 31.2913 9.82134 31.2913H10.409Z" fill="#FFFFFA"/>
<path d="M36.126 31.3382C36.5162 31.3382 36.7137 31.5208 36.7137 31.8813V32.1716C36.7137 32.5321 36.5162 32.7147 36.126 32.7147H27.3954C27.0334 32.7147 26.85 32.5321 26.85 32.1716V31.8813C26.85 31.5208 27.0334 31.3382 27.3954 31.3382C28.0395 31.3382 28.5755 31.1134 29.0127 30.6686C29.4499 30.2238 29.6615 29.6947 29.6615 29.0813V13.7423C29.6615 13.9109 29.7602 13.9905 29.9577 13.9905H30L26.6008 15.0346C26.2106 15.0346 26.0132 14.852 26.0132 14.4915V14.2012C26.0132 13.9249 26.1401 13.7423 26.3893 13.6581L33.2722 11.4855C33.4415 11.4855 33.5872 11.5417 33.7141 11.6541C33.8411 11.7664 33.9022 11.9069 33.9022 12.0708V29.0813C33.9022 29.6947 34.1185 30.2238 34.5557 30.6686C34.9882 31.1134 35.5148 31.3382 36.1307 31.3382H36.126ZM36.9252 0.660194C37.3719 1.10501 37.5976 1.64814 37.5976 2.28961C37.5976 2.51436 37.3719 2.87021 36.9252 3.35716C36.4786 3.84411 35.8909 4.36852 35.1622 4.9257L30.0423 9.10693C29.9295 9.21931 29.7649 9.27549 29.5393 9.27549C29.37 9.27549 29.1913 9.20526 28.9939 9.06479C28.8528 8.86814 28.7823 8.69022 28.7823 8.52166C28.7823 8.325 28.8246 8.17517 28.9093 8.0628L32.8115 2.58927C33.3427 1.83543 33.8317 1.21738 34.2783 0.730428C34.725 0.243476 35.0776 0 35.3268 0C35.9426 0 36.4739 0.224747 36.9205 0.669559L36.9252 0.660194Z" fill="#FFFFFA"/>
<path d="M60.8369 27.6579C60.8369 28.2713 60.7757 28.9174 60.6488 29.601C60.5219 30.2847 60.2915 30.9168 59.9577 31.502C59.6239 32.0873 59.1725 32.5743 58.6131 32.9629C58.0536 33.3515 57.339 33.5482 56.4739 33.5482C55.496 33.5482 54.5839 33.2157 53.7471 32.5462C52.9055 31.8766 52.2802 30.7061 51.8571 29.0345L51.7724 28.7021L52.4871 28.8706C52.1533 29.2592 51.7019 29.7228 51.1425 30.2519C50.583 30.781 49.9107 31.2913 49.1302 31.7783C48.3451 32.2652 47.48 32.682 46.5303 33.0331C45.5806 33.3796 44.5275 33.5575 43.385 33.5575C42.882 33.5575 42.3366 33.4733 41.7489 33.3094C41.1613 33.1408 40.6206 32.8552 40.1316 32.4525C39.6427 32.0499 39.229 31.5208 38.8952 30.8652C38.5614 30.2097 38.3921 29.395 38.3921 28.4211C38.3921 27.583 38.5614 26.8058 38.8952 26.08C39.229 25.3543 39.6709 24.6941 40.2163 24.0947C40.7616 23.4954 41.3775 22.9523 42.0639 22.4653C42.7504 21.9784 43.4556 21.5523 44.1843 21.1918C45.8627 20.3021 47.7809 19.5764 49.9342 19.0192L50.0188 19.0614L49.5157 19.5623C49.2619 18.5884 48.9892 17.7176 48.6977 16.9497C48.4015 16.1818 48.0818 15.5263 47.7339 14.9831C47.386 14.44 46.977 14.0233 46.5162 13.7283C46.0555 13.4333 45.5148 13.2882 44.8989 13.2882C44.4523 13.2882 44.0009 13.3678 43.5543 13.5176C43.1077 13.6721 42.6892 13.8594 42.2943 14.0795C41.9041 14.3042 41.5468 14.5617 41.2224 14.852C40.898 15.1423 40.6253 15.4467 40.4043 15.751C40.2915 15.9477 40.1081 16.046 39.859 16.046C39.6615 16.046 39.4969 15.9851 39.3559 15.8587C39.2149 15.7323 39.1443 15.559 39.1443 15.3343C39.1443 15.2781 39.1725 15.1657 39.229 15.0019C39.4781 14.6132 39.8166 14.2059 40.2351 13.7892C40.6535 13.3724 41.166 12.9885 41.7677 12.642C42.3695 12.2955 43.0748 12.0099 43.8881 11.7852C44.7015 11.5604 45.6088 11.4527 46.6149 11.4527C47.9878 11.4527 49.1349 11.7477 50.0564 12.3283C50.9779 12.9136 51.7489 13.7002 52.3648 14.6881C52.9807 15.6761 53.4838 16.842 53.874 18.1764C54.2642 19.5155 54.6168 20.9342 54.9224 22.4419C55.0353 22.9991 55.1857 23.6874 55.3832 24.5115C55.5806 25.3355 55.7734 26.1222 55.9709 26.8713C56.0273 27.1522 56.0837 27.4004 56.1401 27.6251C56.1965 27.8499 56.2529 28.07 56.3094 28.2947C56.6149 29.5495 56.8829 30.4111 57.1039 30.884C57.3296 31.3569 57.5929 31.5957 57.9031 31.5957C58.1805 31.5957 58.4203 31.4412 58.6178 31.1368C58.8152 30.8325 58.9751 30.4673 59.102 30.0505C59.229 29.6338 59.3183 29.2031 59.3747 28.7536C59.4311 28.3088 59.4593 27.9435 59.4593 27.6673H60.8463L60.8369 27.6579ZM45.7734 30.2097C46.6102 30.2097 47.3531 30.1208 47.9972 29.9382C48.6413 29.7556 49.1913 29.5355 49.6568 29.2686C50.1175 29.0017 50.5031 28.7255 50.8087 28.4305C51.1142 28.1355 51.354 27.878 51.5233 27.6579C51.3822 27.185 51.2553 26.6887 51.1472 26.1737C51.0343 25.6586 50.9074 25.1342 50.771 24.6051C50.63 24.0479 50.5031 23.5142 50.3949 22.9944C50.2821 22.4794 50.1693 22.0252 50.0611 21.6366C50.0047 21.3603 49.9577 21.1543 49.9154 21.0326C49.8731 20.9061 49.826 20.7189 49.7696 20.466C49.2384 20.6627 48.5896 20.9389 47.8185 21.3041C47.0475 21.6647 46.3141 22.1188 45.6135 22.662C44.913 23.2051 44.3206 23.8325 43.8317 24.5442C43.3427 25.2559 43.0983 26.0566 43.0983 26.9462C43.0983 27.3068 43.1453 27.686 43.244 28.0746C43.3427 28.4633 43.4979 28.8191 43.7047 29.1422C43.9163 29.4653 44.189 29.7228 44.5228 29.9148C44.8566 30.1114 45.2797 30.2097 45.7828 30.2097H45.7734Z" fill="#FFFFFA"/>
<path d="M77.2873 27.6158C77.5411 27.7001 77.6634 27.8827 77.6634 28.1589L76.1542 32.3401C76.0414 32.5883 75.8721 32.7147 75.6512 32.7147H61.5515C61.1613 32.7147 60.9638 32.5321 60.9638 32.1716C60.9638 32.0873 60.992 31.989 61.0484 31.8813L71.8336 13.2413V13.3678C71.8336 13.5363 71.9323 13.6206 72.1298 13.6206H66.9252C65.8627 13.6206 64.9083 13.9109 64.0715 14.4962C63.2346 15.0815 62.614 15.8634 62.2238 16.8373C62.111 17.0901 61.9135 17.2119 61.6361 17.2119L61.2177 17.0854C60.9638 16.9731 60.8416 16.7811 60.8416 16.5002L62.2661 12.6139C62.3789 12.3611 62.5435 12.2393 62.7692 12.2393H76.3235C76.7137 12.2393 76.9111 12.422 76.9111 12.7825C76.9111 12.8668 76.8829 12.9651 76.8265 13.0775L66.0414 31.7174V31.591C66.0414 31.4224 65.9426 31.3428 65.7452 31.3428H71.1989C72.346 31.3428 73.3803 31.0244 74.3065 30.383C75.228 29.7415 75.9003 28.894 76.3188 27.8358C76.4034 27.6111 76.582 27.4987 76.8641 27.4987L77.2826 27.6251L77.2873 27.6158Z" fill="#FFFFFA"/>
<path d="M90.7334 15.2313C90.7992 14.8848 90.9497 14.3042 90.9497 13.9624C90.9497 13.2273 89.8684 13.2273 89.3277 13.2273L89.4781 12.5811L93.9351 12.3002L91.4904 21.3463C91.2741 22.1844 90.7522 24.1463 90.7522 24.9422C90.7522 25.181 90.8604 25.5041 91.1424 25.5041C91.7677 25.5041 92.3977 24.1884 92.6986 23.6968L93.1312 23.8887C92.5905 25.1389 91.3352 26.9275 89.8448 26.9275C88.7212 26.9275 88.3545 25.8084 88.5049 24.8814H88.4626C87.7903 25.9349 86.6008 26.993 85.3032 26.993C83.465 26.993 82.5106 25.5931 82.5764 23.87C82.5106 21.3275 84.5886 17.4273 87.5741 17.4273C88.6131 17.4273 89.37 17.8159 89.779 18.743H89.8213L90.7287 15.2313H90.7334ZM85.0682 24.1509C85.0682 24.9469 85.3503 25.7008 86.2811 25.7008C88.2934 25.7008 89.3935 21.2854 89.3935 19.7965C89.3935 19.0848 89.0033 18.6119 88.2275 18.6119C86.2153 18.6119 85.0682 22.5777 85.0682 24.1463V24.1509Z" fill="#FFFFFA"/>
<path d="M101.18 24.1931C100.188 25.6586 98.8011 26.993 96.9393 26.993C94.9694 26.993 93.827 25.7663 93.827 23.7857C93.827 20.5737 96.2059 17.4319 99.5581 17.4319C100.682 17.4319 102.196 17.8861 102.196 19.2393C102.196 21.674 98.3686 22.4934 96.4833 22.9663C96.4175 23.3737 96.3564 23.7857 96.3564 24.1931C96.3564 25.0312 96.8077 25.8084 97.7386 25.8084C98.9516 25.8084 99.9248 24.6472 100.635 23.7857L101.175 24.1931H101.18ZM100.141 18.9583C100.141 18.462 99.859 18.0734 99.3418 18.0734C97.7856 18.0734 96.9817 21.0888 96.6808 22.2734C98.1288 21.8426 100.141 20.658 100.141 18.9583Z" fill="#FFFFFA"/>
</svg>
