<svg width="210" height="210" viewBox="0 0 210 210" fill="none" xmlns="http://www.w3.org/2000/svg">
<path d="M27.0292 28.4247L20.6864 29.1066V21.4251L28.3673 23.6198L27.0292 28.4247Z" fill="#FFAE85"/>
<path d="M60.4311 152.324L55.3986 156.242L51.3546 149.711L59.042 147.534L60.4311 152.324Z" fill="#FFAE85"/>
<path d="M9.05951 210L3 208.01L6.16399 201.01L12.2597 206.173L9.05951 210Z" fill="#FFAE85"/>
<path d="M153.806 35.5693L156.61 29.8396L163.108 33.9328L157.155 39.2619L153.806 35.5693Z" fill="#FFAE85"/>
<path d="M198.519 126.002L192.973 122.855L197.456 116.616L202.412 122.883L198.519 126.002Z" fill="#FFAE85"/>
<path d="M13.1184 57.1009L7.62986 53.8515L12.2278 47.6977L17.0664 54.056L13.1184 57.1009Z" fill="#FFAE85"/>
<path d="M171.004 197.652L165.97 201.566L161.932 195.031L169.62 192.86L171.004 197.652Z" fill="#FFAE85"/>
<path d="M206 4.74953L201.08 8.80869L196.853 2.39501L204.474 0L206 4.74953Z" fill="#FFAE85"/>
</svg>
