<svg width="18" height="22" viewBox="0 0 18 22" fill="none" xmlns="http://www.w3.org/2000/svg">
<path d="M17.9494 3.79848C17.9364 3.27478 17.8028 2.76839 17.5873 2.33557C17.3545 1.87679 17.1347 1.37905 16.7425 1.08474C16.6692 1.02847 16.5313 0.950564 16.4968 0.976533C16.4494 1.0025 16.6003 1.08474 16.6822 1.16264C16.7037 1.18428 16.7166 1.21025 16.7339 1.22757C16.652 1.14966 16.5615 1.07608 16.471 1.00683C16.471 1.00683 16.471 1.00539 16.471 1.0025C16.5011 0.93758 16.5011 0.807736 16.4279 0.747141C15.9796 0.370593 15.402 0.110904 14.7943 0.0286691C14.1865 -0.0578939 13.5573 0.0589661 12.9883 0.279702C12.4107 0.509093 11.9366 0.93758 11.5358 1.39636C11.4409 1.51322 11.3504 1.63874 11.2642 1.76426C11.191 1.89843 11.1091 2.03693 11.0444 2.16677C10.928 2.41781 10.8073 2.66884 10.6737 2.91121C10.4065 3.4003 10.01 3.82013 9.74272 4.30488C9.4798 4.79396 9.25567 5.30468 8.99275 5.79376C8.72551 6.28284 8.40656 6.74162 8.13932 7.23071L7.35918 8.70228C7.1566 9.07882 6.92816 9.41642 6.61351 9.67611C6.29887 9.9358 5.9325 10.0916 5.5532 10.1912C5.0058 10.3383 4.47996 10.5591 4.00152 10.862C3.9498 10.8966 3.89808 10.9313 3.84636 10.9659C3.70412 11.0265 3.56188 11.0871 3.41965 11.1607C3.02311 11.3598 2.64812 11.6324 2.35503 11.9873L2.14383 12.2557L1.96711 12.5024L0.902485 13.9999C0.36802 14.74 0.061995 15.6836 0.0145827 16.6141C-0.0198989 17.0816 0.00596229 17.5533 0.100787 18.0164C0.186991 18.4796 0.346469 18.934 0.57922 19.3495C1.0361 20.1978 1.79039 20.8427 2.61364 21.2929C3.03173 21.5093 3.46706 21.7084 3.93256 21.8382C4.39806 21.9594 4.88512 22.033 5.36786 21.9854C6.33335 21.8988 7.26435 21.5136 8.01433 20.9163C8.38932 20.622 8.72551 20.2671 8.99275 19.8732C9.13929 19.6698 9.23412 19.501 9.34187 19.3279L9.66083 18.8042C9.91513 18.3887 9.99702 18.1506 10.0746 17.9169C10.1393 17.6875 10.2599 17.4321 10.4625 16.9474C10.5272 16.7916 10.5832 16.6358 10.6349 16.48C10.691 16.3198 10.7384 16.164 10.7858 15.9995C10.9323 15.4715 11.0875 14.9218 11.0746 14.3505L11.053 14.0129C11.0487 13.9134 11.0444 13.8138 11.053 13.7143C11.0616 13.5152 11.0918 13.3118 11.1608 13.117C11.2987 12.7275 11.5142 12.3552 11.7987 12.0393C12.1047 11.706 12.484 11.3641 12.8331 10.9919C13.1564 10.6413 13.4926 10.2777 13.8374 9.9055C14.1693 9.55059 14.471 9.15673 14.8158 8.78884C15.152 8.43393 15.5313 8.10932 15.8675 7.74575C16.208 7.38652 16.4968 6.97534 16.8287 6.61611C16.9149 6.52522 17.0054 6.43865 17.0959 6.35209L17.389 6.06643C17.4795 5.96256 17.5657 5.85435 17.6476 5.74615C17.7209 5.63362 17.7899 5.51243 17.8502 5.39124C18.0873 4.86754 17.9752 4.28757 17.9623 3.79848H17.9494ZM16.1477 0.794751C16.2037 0.816392 16.2598 0.838032 16.3158 0.864001C16.3158 0.864001 16.3244 0.885642 16.333 0.915939C16.2727 0.876986 16.2123 0.829376 16.1477 0.794751Z" fill="black"/>
</svg>
